<?xml version="1.0" encoding="UTF-8" standalone="no"?>
<svg
   xmlns:dc="http://purl.org/dc/elements/1.1/"
   xmlns:cc="http://creativecommons.org/ns#"
   xmlns:rdf="http://www.w3.org/1999/02/22-rdf-syntax-ns#"
   xmlns:svg="http://www.w3.org/2000/svg"
   xmlns="http://www.w3.org/2000/svg"
   xmlns:sodipodi="http://sodipodi.sourceforge.net/DTD/sodipodi-0.dtd"
   xmlns:inkscape="http://www.inkscape.org/namespaces/inkscape"
   width="116.39347mm"
   height="112.84788mm"
   viewBox="0 0 329.93451 319.88406"
   version="1.2"
   id="svg2"
   inkscape:version="0.91 r13725"
   sodipodi:docname="pWkanancre.svg">
  <metadata
     id="metadata454">
    <rdf:RDF>
      <cc:Work
         rdf:about="">
        <dc:format>image/svg+xml</dc:format>
        <dc:type
           rdf:resource="http://purl.org/dc/dcmitype/StillImage" />
        <dc:title>Qt SVG Document</dc:title>
      </cc:Work>
    </rdf:RDF>
  </metadata>
  <sodipodi:namedview
     pagecolor="#ffffff"
     bordercolor="#666666"
     borderopacity="1"
     objecttolerance="10"
     gridtolerance="10"
     guidetolerance="10"
     inkscape:pageopacity="0"
     inkscape:pageshadow="2"
     inkscape:window-width="1872"
     inkscape:window-height="960"
     id="namedview452"
     showgrid="false"
     fit-margin-top="5"
     fit-margin-left="10"
     fit-margin-bottom="5"
     fit-margin-right="10"
     inkscape:zoom="1.5084957"
     inkscape:cx="-27.415347"
     inkscape:cy="226.56786"
     inkscape:window-x="24"
     inkscape:window-y="43"
     inkscape:window-maximized="0"
     inkscape:current-layer="svg2" />
  <title
     id="title4">Qt SVG Document</title>
  <desc
     id="desc6">Generated with Qt</desc>
  <defs
     id="defs8" />
  <g
     style="font-style:normal;font-weight:400;font-size:13px;font-family:'.SF NS Text';fill:none;fill-rule:evenodd;stroke:#252525;stroke-width:2;stroke-linecap:square;stroke-linejoin:bevel;stroke-opacity:1"
     id="g22"
     font-style="normal"
     font-weight="400"
     font-size="13"
     transform="matrix(0.46725592,0,0,0.46725592,167.29486,171.99075)">
    <path
       style="fill-rule:evenodd"
       inkscape:connector-curvature="0"
       id="path24"
       d="m -209.902,-91.5323 6.416,2.798"
       vector-effect="none" />
  </g>
  <g
     style="font-style:normal;font-weight:400;font-size:13px;font-family:'.SF NS Text';fill:none;fill-rule:evenodd;stroke:#252525;stroke-width:2;stroke-linecap:square;stroke-linejoin:bevel;stroke-opacity:1"
     id="g26"
     font-style="normal"
     font-weight="400"
     font-size="13"
     transform="matrix(0.46725592,0,0,0.46725592,167.29486,171.99075)">
    <path
       style="fill-rule:evenodd"
       inkscape:connector-curvature="0"
       id="path28"
       d="m -187.221,131.861 5.723,-4.031"
       vector-effect="none" />
  </g>
  <g
     style="font-style:normal;font-weight:400;font-size:13px;font-family:'.SF NS Text';fill:none;fill-rule:evenodd;stroke:#252525;stroke-width:2;stroke-linecap:square;stroke-linejoin:bevel;stroke-opacity:1"
     id="g30"
     font-style="normal"
     font-weight="400"
     font-size="13"
     transform="matrix(0.46725592,0,0,0.46725592,167.29486,171.99075)">
    <path
       style="fill-rule:evenodd"
       inkscape:connector-curvature="0"
       id="path32"
       d="m 15.477,228.473 -0.4731,-6.984"
       vector-effect="none" />
  </g>
  <g
     style="font-style:normal;font-weight:400;font-size:13px;font-family:'.SF NS Text';fill:none;fill-rule:evenodd;stroke:#252525;stroke-width:2;stroke-linecap:square;stroke-linejoin:bevel;stroke-opacity:1"
     id="g34"
     font-style="normal"
     font-weight="400"
     font-size="13"
     transform="matrix(0.46725592,0,0,0.46725592,167.29486,171.99075)">
    <path
       style="fill-rule:evenodd"
       inkscape:connector-curvature="0"
       id="path36"
       d="m 203.29,105.405 -6.214,-3.222"
       vector-effect="none" />
  </g>
  <g
     style="font-style:normal;font-weight:400;font-size:13px;font-family:'.SF NS Text';fill:none;fill-rule:evenodd;stroke:#252525;stroke-width:2;stroke-linecap:square;stroke-linejoin:bevel;stroke-opacity:1"
     id="g38"
     font-style="normal"
     font-weight="400"
     font-size="13"
     transform="matrix(0.46725592,0,0,0.46725592,167.29486,171.99075)">
    <path
       style="fill-rule:evenodd"
       inkscape:connector-curvature="0"
       id="path40"
       d="m 195.641,-119.005 -5.98,3.638"
       vector-effect="none" />
  </g>
  <g
     style="font-style:normal;font-weight:400;font-size:11px;font-family:Verdana;fill:none;fill-rule:evenodd;stroke:#000000;stroke-width:1;stroke-linecap:square;stroke-linejoin:bevel;stroke-opacity:1"
     id="g42"
     font-style="normal"
     font-weight="400"
     font-size="11"
     transform="matrix(0.655088,0,0,0.655088,239.9911,235.43177)" />
  <g
     style="font-style:normal;font-weight:400;font-size:11px;font-family:Verdana;fill:#000000;fill-opacity:1;fill-rule:evenodd;stroke:none;stroke-width:1;stroke-linecap:square;stroke-linejoin:bevel"
     id="g44"
     font-style="normal"
     font-weight="400"
     font-size="11"
     transform="matrix(0.46725592,0,0,0.46725592,167.29486,171.99075)">
    <path
       style="fill-rule:evenodd"
       inkscape:connector-curvature="0"
       id="path46"
       d="m -53.1643,-214.088 c 0.1957,0.788 0.0943,1.495 -0.3006,2.128 -0.3924,0.631 -0.9631,1.044 -1.7141,1.238 -0.3806,0.099 -0.7423,0.13 -1.0852,0.093 -0.3426,-0.035 -0.6639,-0.133 -0.9648,-0.298 -0.3754,-0.204 -0.7086,-0.52 -0.9997,-0.948 -0.2919,-0.428 -0.5299,-0.974 -0.7136,-1.64 -0.1885,-0.683 -0.2807,-1.308 -0.276,-1.878 0.0054,-0.569 0.1172,-1.105 0.3357,-1.607 0.2076,-0.477 0.5304,-0.894 0.9702,-1.242 0.4409,-0.349 0.9939,-0.609 1.6585,-0.781 0.212,-0.055 0.392,-0.092 0.5402,-0.112 0.148,-0.02 0.3014,-0.026 0.46,-0.019 l 0.2505,0.993 -0.0536,0.014 c -0.1132,-0.026 -0.2768,-0.036 -0.4907,-0.031 -0.2141,0.006 -0.4266,0.036 -0.6378,0.09 -0.7692,0.199 -1.3213,0.591 -1.6548,1.174 -0.3306,0.586 -0.425,1.287 -0.2852,2.098 0.2482,-0.258 0.5041,-0.472 0.7682,-0.638 0.2645,-0.166 0.5864,-0.299 0.9656,-0.397 0.3367,-0.087 0.6414,-0.133 0.9139,-0.139 0.2723,-0.006 0.5664,0.048 0.8819,0.163 0.3644,0.131 0.6654,0.337 0.9029,0.62 0.2377,0.284 0.4138,0.658 0.5285,1.119 m -1.0575,0.314 c -0.0818,-0.322 -0.1978,-0.577 -0.3482,-0.763 -0.1506,-0.187 -0.3569,-0.329 -0.6188,-0.428 -0.1908,-0.068 -0.3895,-0.095 -0.5961,-0.078 -0.2067,0.016 -0.4177,0.052 -0.633,0.108 -0.3001,0.078 -0.5698,0.184 -0.8091,0.32 -0.239,0.136 -0.4735,0.316 -0.7045,0.536 0.0136,0.078 0.0281,0.153 0.0438,0.224 0.0157,0.072 0.038,0.162 0.067,0.269 0.1477,0.545 0.3208,0.96 0.5193,1.245 0.1982,0.285 0.4206,0.491 0.6677,0.621 0.2007,0.111 0.4034,0.177 0.6083,0.2 0.2046,0.023 0.4164,0.006 0.6353,-0.05 0.5038,-0.131 0.8604,-0.386 1.0705,-0.768 0.211,-0.381 0.2438,-0.86 0.0978,-1.436 m 7.5219,-3.252 c 0.3017,1.402 0.3024,2.48 0.0043,3.234 -0.2955,0.752 -0.9029,1.23 -1.8241,1.435 -0.9335,0.215 -1.6921,0.047 -2.2798,-0.511 -0.5904,-0.557 -1.0522,-1.52 -1.3835,-2.89 -0.3339,-1.38 -0.3567,-2.454 -0.0663,-3.221 0.293,-0.767 0.9187,-1.266 1.877,-1.487 0.9709,-0.215 1.7542,-0.036 2.3479,0.538 0.5909,0.574 1.0317,1.542 1.3245,2.902 m -0.8752,2.689 c 0.0605,-0.31 0.0706,-0.661 0.0303,-1.053 -0.0402,-0.393 -0.1195,-0.858 -0.238,-1.396 -0.1171,-0.531 -0.2411,-0.987 -0.3721,-1.368 -0.1312,-0.382 -0.2916,-0.694 -0.4813,-0.938 -0.1857,-0.241 -0.4028,-0.405 -0.6513,-0.493 -0.2489,-0.088 -0.5448,-0.094 -0.8876,-0.018 -0.3393,0.076 -0.6036,0.208 -0.793,0.397 -0.1892,0.189 -0.316,0.436 -0.3804,0.742 -0.0609,0.287 -0.0648,0.643 -0.0115,1.068 0.0533,0.425 0.1386,0.885 0.2555,1.379 0.1285,0.543 0.2553,0.993 0.3805,1.349 0.125,0.356 0.2847,0.664 0.479,0.922 0.1793,0.244 0.3913,0.412 0.6361,0.504 0.2444,0.093 0.5415,0.099 0.8919,0.021 0.3294,-0.073 0.5874,-0.201 0.7741,-0.386 0.187,-0.184 0.3097,-0.427 0.3678,-0.73 m 7.8535,-4.071 c 0.2566,1.412 0.2228,2.488 -0.0997,3.23 -0.3197,0.742 -0.9424,1.198 -1.8698,1.372 -0.9388,0.191 -1.692,-0.002 -2.2617,-0.58 -0.5725,-0.577 -1.0034,-1.555 -1.2906,-2.935 -0.2895,-1.391 -0.2777,-2.463 0.0374,-3.219 0.3176,-0.757 0.9594,-1.233 1.923,-1.429 0.9774,-0.184 1.755,0.022 2.3302,0.616 0.5724,0.594 0.9822,1.576 1.2312,2.945 m -0.9617,2.656 c 0.0705,-0.308 0.0919,-0.658 0.0642,-1.051 -0.0276,-0.394 -0.0919,-0.861 -0.1932,-1.403 -0.0999,-0.534 -0.2093,-0.994 -0.328,-1.38 -0.1189,-0.385 -0.2693,-0.703 -0.4512,-0.953 -0.1779,-0.247 -0.3897,-0.419 -0.6355,-0.515 -0.246,-0.096 -0.5417,-0.113 -0.8865,-0.046 -0.3405,0.069 -0.6086,0.195 -0.8041,0.377 -0.1952,0.182 -0.3298,0.425 -0.4042,0.728 -0.0702,0.285 -0.0855,0.64 -0.0459,1.066 0.0397,0.427 0.1101,0.889 0.2112,1.387 0.111,0.547 0.2233,1 0.3371,1.36 0.1135,0.36 0.2634,0.673 0.4493,0.938 0.1715,0.25 0.3781,0.425 0.6199,0.526 0.2415,0.1 0.5379,0.115 0.8896,0.043 0.3313,-0.063 0.5934,-0.183 0.7861,-0.361 0.1929,-0.177 0.3234,-0.416 0.3912,-0.716 m 7.9803,-3.815 c 0.2113,1.419 0.1429,2.493 -0.2034,3.223 -0.3435,0.73 -0.9809,1.164 -1.9121,1.316 -0.9447,0.158 -1.6917,-0.061 -2.2429,-0.658 -0.5538,-0.596 -0.9533,-1.589 -1.1962,-2.977 -0.2448,-1.399 -0.1985,-2.47 0.1408,-3.214 0.3421,-0.745 0.999,-1.199 1.9689,-1.361 0.9814,-0.16 1.7523,0.073 2.3084,0.686 0.5533,0.613 0.9315,1.608 1.1365,2.985 m -1.0469,2.619 c 0.0803,-0.305 0.1131,-0.654 0.098,-1.048 -0.015,-0.394 -0.0643,-0.863 -0.1482,-1.407 -0.0827,-0.538 -0.1773,-1.001 -0.2837,-1.39 -0.1065,-0.389 -0.2466,-0.712 -0.4204,-0.968 -0.17,-0.253 -0.3763,-0.432 -0.6189,-0.537 -0.2425,-0.102 -0.5369,-0.124 -0.8833,-0.066 -0.3427,0.057 -0.6147,0.174 -0.8161,0.349 -0.2011,0.175 -0.3435,0.413 -0.4275,0.713 -0.0795,0.282 -0.1062,0.637 -0.0803,1.064 0.0261,0.427 0.0816,0.891 0.1666,1.392 0.0935,0.55 0.1914,1.007 0.2934,1.371 0.102,0.364 0.2418,0.681 0.4191,0.952 0.1635,0.256 0.3645,0.438 0.603,0.547 0.2383,0.109 0.5342,0.134 0.8882,0.074 0.3328,-0.055 0.5979,-0.17 0.7959,-0.343 0.1986,-0.171 0.3367,-0.405 0.4142,-0.703"
       vector-effect="none" />
  </g>
  <g
     style="font-style:normal;font-weight:400;font-size:11px;font-family:Verdana;fill:#000000;fill-opacity:1;fill-rule:evenodd;stroke:none;stroke-width:1;stroke-linecap:square;stroke-linejoin:bevel"
     id="g48"
     font-style="normal"
     font-weight="400"
     font-size="11"
     transform="matrix(0.46725592,0,0,0.46725592,167.29486,171.99075)">
    <path
       style="fill-rule:evenodd"
       inkscape:connector-curvature="0"
       id="path50"
       d="m -210.568,-65.5361 c 0.355,0.1106 0.674,0.2817 0.957,0.5131 0.284,0.231 0.501,0.4937 0.652,0.7881 0.162,0.3196 0.257,0.6698 0.285,1.0503 0.027,0.3799 -0.026,0.7942 -0.159,1.2432 -0.124,0.4181 -0.287,0.808 -0.489,1.1699 -0.203,0.3623 -0.405,0.6598 -0.603,0.8935 l -1.089,-0.3105 0.02,-0.0729 c 0.259,-0.2329 0.509,-0.5201 0.747,-0.8628 0.237,-0.3423 0.41,-0.6957 0.518,-1.0605 0.072,-0.2444 0.108,-0.4913 0.108,-0.7407 -0.001,-0.2497 -0.06,-0.49 -0.179,-0.7212 -0.102,-0.1965 -0.244,-0.365 -0.426,-0.5054 -0.183,-0.1405 -0.409,-0.2521 -0.679,-0.3347 -0.263,-0.0806 -0.499,-0.1026 -0.708,-0.0657 -0.209,0.037 -0.392,0.1208 -0.55,0.2515 -0.184,0.142 -0.341,0.3352 -0.471,0.5795 -0.13,0.2443 -0.243,0.5272 -0.338,0.8486 -0.091,0.3075 -0.159,0.6096 -0.202,0.9063 -0.043,0.2966 -0.074,0.5538 -0.094,0.7717 l -3.956,-1.1352 1.433,-4.7732 0.897,0.2789 -1.124,3.7282 2.04,0.5958 c 0.031,-0.1548 0.066,-0.3122 0.106,-0.4721 0.04,-0.1598 0.077,-0.2976 0.111,-0.4135 0.126,-0.4244 0.271,-0.7857 0.436,-1.0836 0.165,-0.2978 0.376,-0.5526 0.636,-0.7633 0.275,-0.2206 0.586,-0.3612 0.931,-0.4219 0.346,-0.0603 0.742,-0.0206 1.19,0.1186 m 0.844,-7.2439 c 1.355,0.4703 2.274,1.0284 2.76,1.6733 0.492,0.644 0.588,1.4125 0.289,2.3073 -0.304,0.9085 -0.848,1.4676 -1.628,1.6809 -0.781,0.2158 -1.843,0.1106 -3.185,-0.3176 -1.353,-0.4314 -2.284,-0.9696 -2.79,-1.6166 -0.506,-0.6497 -0.601,-1.441 -0.289,-2.3736 0.316,-0.943 0.872,-1.5207 1.669,-1.7309 0.801,-0.2057 1.859,-0.0791 3.174,0.3772 m 1.842,2.1435 c -0.235,-0.213 -0.53,-0.4042 -0.886,-0.5735 -0.357,-0.1694 -0.796,-0.3432 -1.317,-0.5212 -0.515,-0.1757 -0.969,-0.3066 -1.362,-0.3925 -0.394,-0.0859 -0.744,-0.1109 -1.05,-0.0751 -0.302,0.0338 -0.555,0.1343 -0.758,0.3015 -0.203,0.1673 -0.36,0.4177 -0.471,0.7507 -0.111,0.3295 -0.136,0.6239 -0.075,0.883 0.06,0.2587 0.204,0.4949 0.43,0.7084 0.212,0.2006 0.514,0.3884 0.905,0.5637 0.391,0.175 0.828,0.3409 1.311,0.4976 0.531,0.1722 0.981,0.2972 1.35,0.3752 0.369,0.0781 0.716,0.1016 1.04,0.0704 0.303,-0.0262 0.558,-0.1195 0.767,-0.28 0.208,-0.1602 0.369,-0.4103 0.483,-0.7507 0.107,-0.3199 0.129,-0.6076 0.068,-0.8633 -0.062,-0.2559 -0.207,-0.4873 -0.435,-0.6942 m 0.594,-8.8272 c 1.34,0.5135 2.244,1.102 2.712,1.7636 0.47,0.6589 0.54,1.4294 0.21,2.3133 -0.336,0.8973 -0.889,1.4417 -1.676,1.6294 -0.789,0.1903 -1.848,0.051 -3.176,-0.42 -1.339,-0.4746 -2.25,-1.0421 -2.735,-1.7046 -0.484,-0.6651 -0.561,-1.4621 -0.217,-2.3833 0.349,-0.9315 0.925,-1.4903 1.729,-1.6744 0.803,-0.1815 1.854,-0.0221 3.153,0.476 m 1.777,2.2033 c -0.227,-0.2202 -0.515,-0.4207 -0.866,-0.6012 -0.351,-0.1808 -0.784,-0.3685 -1.299,-0.5632 -0.509,-0.1921 -0.958,-0.3374 -1.349,-0.436 -0.391,-0.0984 -0.74,-0.1348 -1.048,-0.1089 -0.303,0.0239 -0.559,0.1161 -0.768,0.2764 -0.209,0.1607 -0.375,0.4056 -0.498,0.7345 -0.122,0.3254 -0.157,0.6186 -0.105,0.8792 0.053,0.2611 0.192,0.5026 0.413,0.7239 0.207,0.2079 0.503,0.4057 0.889,0.5934 0.385,0.1874 0.816,0.3672 1.294,0.5393 0.525,0.1891 0.971,0.3285 1.338,0.4183 0.366,0.0899 0.711,0.1241 1.034,0.1027 0.302,-0.017 0.558,-0.1029 0.77,-0.2572 0.214,-0.1533 0.383,-0.3978 0.509,-0.734 0.118,-0.316 0.151,-0.6026 0.098,-0.8599 -0.053,-0.2575 -0.19,-0.4932 -0.412,-0.7073 m 0.88,-8.8027 c 1.322,0.5562 2.206,1.1731 2.652,1.8488 0.447,0.6732 0.491,1.4448 0.13,2.3166 -0.357,0.8892 -0.929,1.4148 -1.723,1.5767 -0.795,0.1645 -1.85,-0.0089 -3.162,-0.5222 -1.323,-0.5172 -2.216,-1.1135 -2.678,-1.7906 -0.46,-0.6798 -0.51,-1.4781 -0.144,-2.3909 0.38,-0.9188 0.976,-1.4581 1.787,-1.6158 0.81,-0.1552 1.855,0.038 3.138,0.5774 m 1.702,2.2576 c -0.22,-0.2272 -0.502,-0.4367 -0.846,-0.6284 -0.345,-0.1919 -0.772,-0.3933 -1.28,-0.6044 -0.503,-0.2083 -0.948,-0.368 -1.335,-0.4791 -0.388,-0.1109 -0.736,-0.1585 -1.045,-0.1427 -0.304,0.0141 -0.563,0.0978 -0.777,0.2511 -0.215,0.1536 -0.39,0.3928 -0.524,0.7172 -0.133,0.3211 -0.173,0.6145 -0.127,0.8779 0.046,0.2632 0.176,0.5088 0.39,0.7369 0.2,0.2144 0.49,0.4214 0.869,0.6213 0.378,0.1997 0.804,0.3931 1.276,0.5805 0.519,0.2058 0.96,0.3595 1.324,0.461 0.363,0.1016 0.707,0.1469 1.03,0.136 0.303,-0.0072 0.562,-0.0847 0.778,-0.2324 0.216,-0.1475 0.389,-0.3881 0.526,-0.72 0.129,-0.3116 0.172,-0.5967 0.128,-0.8553 -0.044,-0.2588 -0.173,-0.4987 -0.387,-0.7196"
       vector-effect="none" />
  </g>
  <g
     style="font-style:normal;font-weight:400;font-size:11px;font-family:Verdana;fill:#000000;fill-opacity:1;fill-rule:evenodd;stroke:none;stroke-width:1;stroke-linecap:square;stroke-linejoin:bevel"
     id="g52"
     font-style="normal"
     font-weight="400"
     font-size="11"
     transform="matrix(0.46725592,0,0,0.46725592,167.29486,171.99075)">
    <path
       style="fill-rule:evenodd"
       inkscape:connector-curvature="0"
       id="path54"
       d="m -177.088,136.398 -0.74,-0.964 -1.789,1.362 -0.649,-0.847 1.795,-1.353 -2.335,-3.153 0.998,-0.726 5.947,0.455 0.6,0.783 -3.884,2.959 0.737,0.961 -0.68,0.523 m -0.698,-2.319 2.879,-2.172 -4.761,-0.37 1.882,2.542 m 6.385,6.66 c -1.108,0.911 -2.069,1.401 -2.882,1.468 -0.815,0.066 -1.53,-0.284 -2.139,-1.05 -0.619,-0.777 -0.804,-1.556 -0.554,-2.333 0.253,-0.775 0.938,-1.598 2.05,-2.464 1.12,-0.873 2.084,-1.34 2.897,-1.406 0.812,-0.069 1.512,0.267 2.101,1.007 0.596,0.749 0.769,1.509 0.516,2.285 -0.251,0.779 -0.913,1.61 -1.989,2.493 m -2.806,0.426 c 0.307,-0.083 0.627,-0.23 0.961,-0.442 0.333,-0.212 0.713,-0.491 1.141,-0.839 0.421,-0.343 0.774,-0.658 1.056,-0.945 0.282,-0.288 0.49,-0.57 0.625,-0.845 0.134,-0.271 0.189,-0.536 0.162,-0.794 -0.026,-0.257 -0.145,-0.519 -0.358,-0.786 -0.209,-0.263 -0.438,-0.438 -0.684,-0.524 -0.247,-0.086 -0.521,-0.092 -0.824,-0.018 -0.284,0.068 -0.607,0.216 -0.969,0.444 -0.363,0.228 -0.744,0.499 -1.143,0.814 -0.438,0.345 -0.792,0.649 -1.062,0.913 -0.27,0.264 -0.481,0.54 -0.631,0.828 -0.144,0.268 -0.203,0.535 -0.179,0.801 0.024,0.266 0.151,0.543 0.381,0.832 0.216,0.272 0.45,0.453 0.701,0.545 0.251,0.091 0.525,0.097 0.823,0.016 m 7.402,4.995 c -1.079,0.946 -2.023,1.467 -2.835,1.561 -0.81,0.09 -1.533,-0.24 -2.168,-0.984 -0.646,-0.756 -0.857,-1.526 -0.63,-2.313 0.232,-0.787 0.89,-1.63 1.974,-2.532 1.091,-0.909 2.04,-1.406 2.846,-1.494 0.808,-0.093 1.519,0.218 2.134,0.938 0.622,0.727 0.816,1.484 0.586,2.27 -0.225,0.786 -0.86,1.637 -1.907,2.554 m -2.786,0.512 c 0.302,-0.091 0.617,-0.248 0.942,-0.47 0.326,-0.222 0.697,-0.513 1.113,-0.874 0.411,-0.356 0.753,-0.683 1.026,-0.98 0.274,-0.297 0.474,-0.586 0.6,-0.867 0.127,-0.276 0.173,-0.542 0.137,-0.798 -0.035,-0.256 -0.163,-0.513 -0.384,-0.772 -0.219,-0.257 -0.453,-0.424 -0.703,-0.501 -0.25,-0.078 -0.525,-0.075 -0.825,0.009 -0.282,0.077 -0.6,0.236 -0.955,0.476 -0.356,0.239 -0.728,0.523 -1.116,0.85 -0.428,0.359 -0.772,0.674 -1.033,0.947 -0.261,0.272 -0.462,0.555 -0.604,0.847 -0.134,0.272 -0.185,0.54 -0.152,0.805 0.034,0.264 0.17,0.537 0.41,0.818 0.225,0.264 0.465,0.438 0.72,0.521 0.254,0.082 0.529,0.079 0.824,-0.011 m 7.552,4.761 c -1.048,0.979 -1.976,1.53 -2.779,1.647 -0.806,0.114 -1.54,-0.191 -2.201,-0.913 -0.671,-0.732 -0.904,-1.499 -0.7,-2.294 0.206,-0.794 0.836,-1.657 1.89,-2.593 1.062,-0.943 1.995,-1.472 2.799,-1.586 0.802,-0.117 1.52,0.174 2.159,0.872 0.647,0.706 0.866,1.455 0.66,2.249 -0.204,0.796 -0.811,1.668 -1.828,2.618 m -2.763,0.596 c 0.3,-0.102 0.609,-0.269 0.927,-0.501 0.319,-0.232 0.68,-0.535 1.085,-0.909 0.399,-0.37 0.73,-0.707 0.994,-1.012 0.263,-0.306 0.454,-0.601 0.571,-0.886 0.118,-0.279 0.154,-0.546 0.11,-0.801 -0.043,-0.254 -0.18,-0.507 -0.41,-0.758 -0.228,-0.248 -0.468,-0.407 -0.721,-0.476 -0.252,-0.069 -0.528,-0.057 -0.824,0.035 -0.278,0.086 -0.59,0.254 -0.937,0.504 -0.347,0.251 -0.709,0.545 -1.088,0.885 -0.415,0.372 -0.749,0.699 -1.002,0.98 -0.253,0.281 -0.446,0.571 -0.579,0.868 -0.126,0.278 -0.168,0.547 -0.126,0.81 0.042,0.263 0.188,0.531 0.437,0.803 0.235,0.256 0.481,0.421 0.738,0.496 0.258,0.074 0.532,0.061 0.825,-0.038"
       vector-effect="none" />
  </g>
  <g
     style="font-style:normal;font-weight:400;font-size:11px;font-family:Verdana;fill:#000000;fill-opacity:1;fill-rule:evenodd;stroke:none;stroke-width:1;stroke-linecap:square;stroke-linejoin:bevel"
     id="g56"
     font-style="normal"
     font-weight="400"
     font-size="11"
     transform="matrix(0.46725592,0,0,0.46725592,167.29486,171.99075)">
    <path
       style="fill-rule:evenodd"
       inkscape:connector-curvature="0"
       id="path58"
       d="m 23.5444,220.682 c 0.1901,0.133 0.3539,0.309 0.4914,0.527 0.1377,0.218 0.2266,0.511 0.2667,0.877 0.0397,0.363 0.0085,0.703 -0.0939,1.02 -0.1028,0.318 -0.2651,0.603 -0.4871,0.855 -0.2495,0.279 -0.5555,0.494 -0.9175,0.65 -0.3624,0.155 -0.767,0.254 -1.2135,0.297 -0.4577,0.044 -0.9127,0.035 -1.3649,-0.027 -0.4518,-0.063 -0.8252,-0.147 -1.12,-0.25 l -0.095,-1.117 0.0826,-0.007 c 0.3292,0.175 0.7108,0.308 1.1448,0.399 0.4344,0.091 0.8485,0.118 1.2417,0.08 0.2316,-0.022 0.4741,-0.083 0.7276,-0.183 0.2534,-0.1 0.4533,-0.231 0.5999,-0.392 0.1526,-0.173 0.2603,-0.358 0.3232,-0.554 0.0627,-0.197 0.079,-0.439 0.0489,-0.727 -0.0297,-0.285 -0.1007,-0.516 -0.2129,-0.694 -0.112,-0.178 -0.2552,-0.312 -0.4294,-0.403 -0.1745,-0.095 -0.3798,-0.151 -0.6159,-0.17 -0.236,-0.019 -0.4881,-0.015 -0.7563,0.011 l -0.4893,0.047 -0.083,-0.887 0.379,-0.036 c 0.5487,-0.053 0.9751,-0.208 1.2787,-0.466 0.3029,-0.257 0.4316,-0.603 0.3867,-1.037 -0.0199,-0.192 -0.0785,-0.356 -0.1758,-0.493 -0.0971,-0.136 -0.2237,-0.243 -0.3796,-0.321 -0.163,-0.078 -0.3338,-0.126 -0.5123,-0.145 -0.1784,-0.019 -0.3783,-0.018 -0.5996,0.004 -0.3392,0.032 -0.694,0.128 -1.065,0.285 -0.3715,0.158 -0.7175,0.364 -1.0386,0.614 l -0.0538,0.004 -0.0963,-1.117 c 0.2425,-0.145 0.5698,-0.292 0.9819,-0.437 0.4118,-0.146 0.8148,-0.238 1.2094,-0.276 0.3874,-0.037 0.7322,-0.035 1.0345,0.008 0.3025,0.043 0.5811,0.131 0.8361,0.265 0.2741,0.142 0.4901,0.326 0.648,0.553 0.1581,0.226 0.2549,0.502 0.29,0.825 0.0479,0.441 -0.0674,0.844 -0.3468,1.209 -0.2803,0.365 -0.6317,0.608 -1.0531,0.735 l 0.0076,0.074 c 0.1765,0.012 0.3816,0.053 0.6153,0.122 0.234,0.069 0.4357,0.16 0.6056,0.278 m 7.7354,-1.116 c 0.2023,1.421 0.1224,2.497 -0.2425,3.225 -0.3681,0.725 -1.0384,1.151 -2.0088,1.279 -0.9851,0.13 -1.7463,-0.117 -2.2813,-0.74 -0.5324,-0.623 -0.8792,-1.635 -1.0425,-3.035 -0.1646,-1.41 -0.0627,-2.478 0.3036,-3.202 0.3636,-0.724 1.0134,-1.148 1.9516,-1.271 0.9489,-0.125 1.6888,0.125 2.2218,0.749 0.5353,0.621 0.9019,1.618 1.0981,2.995 m -1.0944,2.609 c 0.0885,-0.304 0.1288,-0.653 0.1211,-1.047 -0.0079,-0.394 -0.0494,-0.864 -0.1244,-1.41 -0.074,-0.538 -0.1607,-1.003 -0.26,-1.394 -0.0991,-0.391 -0.2318,-0.717 -0.398,-0.976 -0.1618,-0.257 -0.3597,-0.44 -0.5935,-0.55 -0.2336,-0.11 -0.5192,-0.143 -0.8569,-0.098 -0.3342,0.044 -0.6018,0.15 -0.8031,0.317 -0.2016,0.167 -0.3492,0.399 -0.443,0.697 -0.0891,0.278 -0.1305,0.63 -0.1238,1.058 0.0066,0.427 0.0406,0.893 0.102,1.398 0.0674,0.554 0.1438,1.015 0.2293,1.383 0.0855,0.368 0.2121,0.692 0.3797,0.971 0.1546,0.261 0.3516,0.449 0.5911,0.566 0.2397,0.116 0.5427,0.15 0.9088,0.102 0.3442,-0.045 0.6207,-0.152 0.8291,-0.32 0.2082,-0.168 0.3554,-0.401 0.4416,-0.697 m 8.1138,-3.722 c 0.2478,1.413 0.2018,2.488 -0.1399,3.225 -0.3445,0.738 -1.0005,1.188 -1.9658,1.349 -0.9804,0.162 -1.7501,-0.067 -2.3046,-0.671 -0.5519,-0.605 -0.9309,-1.604 -1.139,-2.998 -0.2097,-1.405 -0.1421,-2.476 0.2006,-3.212 0.34,-0.737 0.977,-1.174 1.9107,-1.329 0.9439,-0.158 1.6911,0.066 2.2436,0.672 0.5553,0.605 0.9541,1.593 1.1944,2.964 m -1.0108,2.639 c 0.0786,-0.307 0.1077,-0.657 0.0874,-1.051 -0.0206,-0.394 -0.0771,-0.862 -0.1695,-1.405 -0.0912,-0.536 -0.1928,-0.998 -0.3045,-1.385 -0.1116,-0.388 -0.2547,-0.709 -0.429,-0.962 -0.1699,-0.251 -0.3734,-0.428 -0.6106,-0.529 -0.2369,-0.102 -0.5232,-0.125 -0.8592,-0.069 -0.3324,0.056 -0.5964,0.171 -0.7922,0.345 -0.1966,0.17 -0.3371,0.405 -0.4216,0.703 -0.0804,0.28 -0.1104,0.633 -0.0899,1.061 0.0203,0.427 0.0691,0.892 0.1466,1.394 0.0852,0.551 0.1763,1.01 0.2735,1.375 0.0974,0.365 0.2342,0.685 0.4108,0.959 0.1632,0.257 0.3665,0.442 0.6101,0.554 0.2433,0.109 0.5471,0.132 0.9114,0.071 0.3423,-0.057 0.6151,-0.173 0.818,-0.349 0.2026,-0.175 0.3422,-0.413 0.4187,-0.712 m 7.9899,-3.982 c 0.2929,1.404 0.2815,2.48 -0.0362,3.23 -0.3204,0.749 -0.9611,1.222 -1.9203,1.417 -0.9763,0.185 -1.7525,-0.017 -2.326,-0.602 -0.5707,-0.586 -0.9813,-1.572 -1.234,-2.958 -0.2546,-1.398 -0.2215,-2.471 0.0972,-3.219 0.316,-0.748 0.9383,-1.208 1.8681,-1.384 0.9379,-0.191 1.6914,0.007 2.2628,0.594 0.5742,0.586 1.0043,1.559 1.2884,2.922 m -0.925,2.674 c 0.0687,-0.31 0.0866,-0.661 0.0535,-1.054 -0.0331,-0.393 -0.1046,-0.86 -0.2144,-1.399 -0.1083,-0.533 -0.2246,-0.991 -0.3487,-1.375 -0.1239,-0.384 -0.2771,-0.699 -0.4594,-0.947 -0.1778,-0.245 -0.3868,-0.414 -0.627,-0.508 -0.2399,-0.093 -0.5266,-0.106 -0.8604,-0.038 -0.3308,0.065 -0.5917,0.184 -0.7824,0.361 -0.1909,0.178 -0.3238,0.417 -0.3986,0.718 -0.0713,0.283 -0.0899,0.637 -0.0558,1.064 0.034,0.426 0.0978,0.889 0.1913,1.389 0.1028,0.548 0.2086,1.003 0.3174,1.365 0.109,0.362 0.2559,0.677 0.4411,0.944 0.1713,0.252 0.3804,0.43 0.6273,0.534 0.2472,0.103 0.5524,0.121 0.9148,0.05 0.3402,-0.069 0.6089,-0.195 0.806,-0.378 0.1967,-0.182 0.3285,-0.424 0.3953,-0.726"
       vector-effect="none" />
  </g>
  <g
     style="font-style:normal;font-weight:400;font-size:11px;font-family:Verdana;fill:#000000;fill-opacity:1;fill-rule:evenodd;stroke:none;stroke-width:1;stroke-linecap:square;stroke-linejoin:bevel"
     id="g60"
     font-style="normal"
     font-weight="400"
     font-size="11"
     transform="matrix(0.46725592,0,0,0.46725592,167.29486,171.99075)">
    <path
       style="fill-rule:evenodd"
       inkscape:connector-curvature="0"
       id="path62"
       d="m 204.617,95.447 -2.438,5.043 -1.004,-0.499 c -0.116,-0.4892 -0.232,-0.9783 -0.348,-1.4671 -0.116,-0.4879 -0.247,-0.952 -0.39,-1.3915 -0.298,-0.9216 -0.568,-1.5821 -0.811,-1.9836 -0.243,-0.4006 -0.569,-0.698 -0.98,-0.8928 -0.375,-0.1779 -0.727,-0.1929 -1.057,-0.0455 -0.33,0.147 -0.6,0.4419 -0.812,0.8854 -0.14,0.2946 -0.241,0.6385 -0.306,1.0299 -0.067,0.391 -0.076,0.8012 -0.026,1.2308 l -0.024,0.0483 -1.01,-0.5006 c 0.001,-0.2829 0.05,-0.6368 0.146,-1.0616 0.095,-0.4245 0.225,-0.8171 0.396,-1.1749 0.352,-0.7381 0.806,-1.2319 1.364,-1.4825 0.558,-0.2521 1.144,-0.2353 1.756,0.0514 0.275,0.129 0.515,0.2844 0.72,0.4662 0.204,0.182 0.381,0.392 0.528,0.6302 0.14,0.2225 0.266,0.4659 0.377,0.7303 0.112,0.2648 0.227,0.5769 0.344,0.9366 0.171,0.5155 0.324,1.0388 0.461,1.5697 0.137,0.5322 0.259,1.0279 0.366,1.4867 l 1.917,-3.9973 0.831,0.3879 m -0.73,-8.17 c 1.319,0.5645 2.194,1.1905 2.626,1.8799 0.43,0.6919 0.45,1.4876 0.06,2.3853 -0.406,0.9069 -1.017,1.4273 -1.825,1.562 -0.807,0.1322 -1.851,-0.0963 -3.132,-0.6837 -1.291,-0.5917 -2.151,-1.2336 -2.582,-1.9235 -0.432,-0.6874 -0.452,-1.4607 -0.065,-2.3246 0.381,-0.8776 0.976,-1.3816 1.784,-1.5138 0.81,-0.1347 1.855,0.0707 3.134,0.6184 m 1.661,2.2897 c -0.215,-0.2337 -0.492,-0.4495 -0.833,-0.6476 -0.341,-0.198 -0.765,-0.4066 -1.27,-0.6259 -0.499,-0.2165 -0.941,-0.3837 -1.326,-0.5018 -0.386,-0.1182 -0.732,-0.1735 -1.04,-0.166 -0.303,0.0053 -0.561,0.0796 -0.776,0.2228 -0.214,0.143 -0.389,0.3706 -0.525,0.683 -0.134,0.309 -0.185,0.5915 -0.149,0.8492 0.035,0.258 0.155,0.5039 0.359,0.7378 0.191,0.2202 0.47,0.4386 0.84,0.655 0.369,0.2165 0.785,0.4295 1.248,0.6389 0.508,0.23 0.942,0.4041 1.301,0.5222 0.359,0.118 0.701,0.1779 1.026,0.1795 0.305,0.0041 0.571,-0.0654 0.797,-0.2085 0.227,-0.1433 0.416,-0.3832 0.563,-0.7219 0.139,-0.3183 0.19,-0.6106 0.153,-0.8765 -0.036,-0.2657 -0.159,-0.5124 -0.368,-0.7402 m 1.028,-8.8684 c 1.336,0.522 2.232,1.1199 2.687,1.7956 0.454,0.6782 0.501,1.4737 0.138,2.3827 -0.38,0.918 -0.972,1.4585 -1.774,1.6195 -0.802,0.1585 -1.852,-0.0362 -3.151,-0.5822 -1.309,-0.5501 -2.19,-1.1643 -2.644,-1.8406 -0.455,-0.6737 -0.501,-1.4467 -0.139,-2.321 0.354,-0.8889 0.931,-1.4124 1.733,-1.5709 0.804,-0.1611 1.854,0.0106 3.15,0.5169 m 1.737,2.2369 c -0.222,-0.2268 -0.506,-0.4337 -0.854,-0.6209 -0.347,-0.187 -0.777,-0.3819 -1.289,-0.5849 -0.505,-0.2004 -0.953,-0.3533 -1.342,-0.459 -0.389,-0.1057 -0.736,-0.1498 -1.043,-0.1323 -0.302,0.0151 -0.558,0.0978 -0.767,0.2481 -0.209,0.15 -0.376,0.3833 -0.505,0.6987 -0.129,0.3113 -0.171,0.5953 -0.126,0.852 0.044,0.257 0.173,0.4991 0.384,0.7264 0.198,0.2142 0.485,0.4236 0.861,0.6281 0.376,0.2046 0.799,0.4042 1.268,0.5987 0.516,0.2136 0.955,0.3737 1.317,0.4802 0.362,0.1064 0.706,0.1552 1.031,0.1462 0.305,-0.0059 0.567,-0.084 0.789,-0.2345 0.221,-0.1507 0.402,-0.3968 0.543,-0.738 0.132,-0.3213 0.173,-0.6154 0.127,-0.8802 -0.046,-0.2647 -0.177,-0.5075 -0.394,-0.7286 m 0.742,-8.8976 c 1.352,0.4789 2.267,1.048 2.745,1.7092 0.476,0.6638 0.551,1.4581 0.209,2.3753 -0.348,0.9308 -0.92,1.4906 -1.716,1.6777 -0.794,0.1846 -1.849,0.0238 -3.165,-0.4802 -1.327,-0.5079 -2.228,-1.0938 -2.704,-1.7556 -0.477,-0.6593 -0.55,-1.4312 -0.219,-2.3176 0.334,-0.897 0.891,-1.4393 1.687,-1.6239 0.797,-0.1871 1.851,-0.0494 3.163,0.4151 m 1.812,2.1815 c -0.23,-0.2197 -0.521,-0.4175 -0.874,-0.5935 -0.354,-0.1758 -0.79,-0.3569 -1.308,-0.5434 -0.512,-0.1841 -0.963,-0.3226 -1.355,-0.4157 -0.392,-0.0932 -0.741,-0.126 -1.047,-0.0986 -0.301,0.025 -0.553,0.116 -0.758,0.2729 -0.207,0.1555 -0.37,0.3927 -0.489,0.7117 -0.118,0.3158 -0.15,0.6012 -0.097,0.8565 0.053,0.2557 0.19,0.4937 0.409,0.7143 0.205,0.2079 0.499,0.408 0.881,0.6004 0.383,0.1926 0.811,0.3785 1.287,0.5578 0.522,0.197 0.966,0.3429 1.331,0.4377 0.366,0.0947 0.711,0.1324 1.035,0.1129 0.304,-0.0158 0.563,-0.1025 0.779,-0.2602 0.216,-0.1579 0.388,-0.41 0.517,-0.7559 0.122,-0.3251 0.157,-0.6189 0.106,-0.881 -0.054,-0.2631 -0.193,-0.5018 -0.417,-0.7159"
       vector-effect="none" />
  </g>
  <g
     style="font-style:normal;font-weight:400;font-size:11px;font-family:Verdana;fill:#000000;fill-opacity:1;fill-rule:evenodd;stroke:none;stroke-width:1;stroke-linecap:square;stroke-linejoin:bevel"
     id="g64"
     font-style="normal"
     font-weight="400"
     font-size="11"
     transform="matrix(0.46725592,0,0,0.46725592,167.29486,171.99075)">
    <path
       style="fill-rule:evenodd"
       inkscape:connector-curvature="0"
       id="path66"
       d="m 172.511,-133.269 -2.676,-3.398 0.636,-0.511 1.039,1.306 4.198,-3.325 -1.065,-1.338 0.569,-0.458 c 0.144,0.182 0.314,0.365 0.509,0.55 0.195,0.184 0.362,0.308 0.504,0.37 0.175,0.078 0.348,0.112 0.517,0.103 0.169,-0.009 0.349,-0.079 0.541,-0.212 l 0.537,0.675 -5.666,4.445 1.003,1.294 -0.646,0.499 m 7.688,3.622 c -1.165,0.837 -2.15,1.268 -2.956,1.294 -0.806,0.028 -1.491,-0.334 -2.052,-1.092 -0.57,-0.771 -0.715,-1.537 -0.435,-2.301 0.271,-0.762 0.968,-1.57 2.091,-2.422 1.132,-0.858 2.107,-1.31 2.929,-1.353 0.817,-0.036 1.519,0.342 2.104,1.133 0.591,0.799 0.745,1.586 0.454,2.361 -0.293,0.774 -1.006,1.567 -2.135,2.38 m -2.809,0.269 c 0.31,-0.069 0.636,-0.2 0.98,-0.395 0.343,-0.194 0.738,-0.453 1.184,-0.777 0.439,-0.319 0.808,-0.615 1.104,-0.888 0.297,-0.272 0.519,-0.544 0.666,-0.815 0.145,-0.266 0.208,-0.53 0.188,-0.792 -0.021,-0.262 -0.135,-0.535 -0.344,-0.817 -0.207,-0.279 -0.434,-0.469 -0.681,-0.568 -0.247,-0.099 -0.523,-0.117 -0.828,-0.055 -0.286,0.058 -0.613,0.197 -0.981,0.415 -0.368,0.219 -0.755,0.481 -1.161,0.786 -0.446,0.335 -0.808,0.631 -1.085,0.889 -0.276,0.257 -0.495,0.527 -0.655,0.81 -0.153,0.262 -0.224,0.525 -0.212,0.787 0.012,0.263 0.124,0.538 0.338,0.826 0.2,0.272 0.423,0.455 0.668,0.552 0.245,0.096 0.518,0.111 0.819,0.042 m 6.873,5.569 c -1.19,0.8 -2.189,1.199 -2.998,1.2 -0.81,0.006 -1.482,-0.379 -2.016,-1.157 -0.543,-0.789 -0.664,-1.559 -0.365,-2.31 0.297,-0.754 1.02,-1.54 2.169,-2.355 1.158,-0.822 2.148,-1.241 2.969,-1.257 0.823,-0.013 1.514,0.386 2.071,1.196 0.563,0.82 0.69,1.612 0.378,2.375 -0.315,0.762 -1.053,1.532 -2.208,2.308 m -2.821,0.184 c 0.311,-0.06 0.641,-0.18 0.991,-0.363 0.349,-0.183 0.752,-0.429 1.208,-0.739 0.45,-0.305 0.827,-0.59 1.133,-0.852 0.305,-0.264 0.536,-0.528 0.691,-0.794 0.155,-0.262 0.226,-0.524 0.215,-0.787 -0.012,-0.263 -0.117,-0.539 -0.316,-0.829 -0.197,-0.286 -0.417,-0.483 -0.66,-0.59 -0.243,-0.108 -0.518,-0.135 -0.825,-0.083 -0.288,0.05 -0.62,0.178 -0.995,0.385 -0.376,0.208 -0.771,0.457 -1.187,0.749 -0.457,0.32 -0.827,0.605 -1.111,0.853 -0.285,0.248 -0.511,0.51 -0.68,0.787 -0.161,0.258 -0.24,0.518 -0.238,0.781 0.003,0.263 0.106,0.542 0.309,0.838 0.191,0.278 0.407,0.469 0.649,0.574 0.241,0.105 0.513,0.128 0.816,0.07 m 6.695,5.783 c -1.216,0.762 -2.23,1.13 -3.04,1.106 -0.808,-0.021 -1.466,-0.428 -1.973,-1.224 -0.517,-0.807 -0.619,-1.576 -0.295,-2.319 0.322,-0.744 1.071,-1.506 2.246,-2.285 1.184,-0.784 2.185,-1.171 3.006,-1.16 0.822,0.014 1.505,0.432 2.035,1.26 0.535,0.839 0.634,1.635 0.297,2.389 -0.338,0.751 -1.097,1.495 -2.276,2.233 m -2.829,0.095 c 0.313,-0.049 0.647,-0.159 1.002,-0.331 0.355,-0.172 0.765,-0.405 1.231,-0.699 0.459,-0.291 0.846,-0.563 1.16,-0.816 0.313,-0.253 0.552,-0.511 0.717,-0.772 0.163,-0.256 0.243,-0.517 0.241,-0.78 -0.003,-0.264 -0.098,-0.544 -0.287,-0.84 -0.187,-0.293 -0.4,-0.497 -0.639,-0.613 -0.242,-0.113 -0.519,-0.148 -0.829,-0.104 -0.29,0.041 -0.626,0.158 -1.008,0.353 -0.381,0.195 -0.784,0.432 -1.209,0.71 -0.467,0.306 -0.846,0.579 -1.139,0.818 -0.292,0.238 -0.527,0.493 -0.704,0.764 -0.168,0.252 -0.253,0.508 -0.256,0.769 -0.006,0.263 0.088,0.546 0.281,0.848 0.181,0.285 0.39,0.483 0.627,0.596 0.237,0.113 0.508,0.145 0.812,0.097"
       vector-effect="none" />
  </g>
  <g
     style="font-style:normal;font-weight:400;font-size:11px;font-family:Verdana;fill:none;fill-rule:evenodd;stroke:#000000;stroke-width:1;stroke-linecap:square;stroke-linejoin:bevel;stroke-opacity:1"
     id="g68"
     font-style="normal"
     font-weight="400"
     font-size="11"
     transform="matrix(0.655088,0,0,0.655088,239.9911,235.43177)" />
  <g
     style="font-style:normal;font-weight:400;font-size:13px;font-family:'.SF NS Text';fill:none;fill-rule:evenodd;stroke:#fffcf5;stroke-width:4;stroke-linecap:butt;stroke-linejoin:bevel;stroke-opacity:1"
     id="g74"
     font-style="normal"
     font-weight="400"
     font-size="13"
     transform="matrix(0.46725592,0,0,0.46725592,167.29486,171.99075)">
    <polyline
       style="fill:none"
       id="polyline76"
       points="-132,-184 -145,-201 "
       vector-effect="none" />
  </g>
  <g
     style="font-style:normal;font-weight:400;font-size:13px;font-family:'.SF NS Text';fill:none;fill-rule:evenodd;stroke:#888a85;stroke-width:4;stroke-linecap:butt;stroke-linejoin:bevel;stroke-opacity:1"
     id="g78"
     font-style="normal"
     font-weight="400"
     font-size="13"
     transform="matrix(0.46725592,0,0,0.46725592,167.29486,171.99075)">
    <polyline
       style="fill:none;stroke:#888a85"
       id="polyline80"
       points="-199,-108 -218,-119 "
       vector-effect="none" />
  </g>
  <g
     style="font-style:normal;font-weight:400;font-size:13px;font-family:'.SF NS Text';fill:none;fill-rule:evenodd;stroke:#888a85;stroke-width:4;stroke-linecap:butt;stroke-linejoin:bevel;stroke-opacity:1"
     id="g82"
     font-style="normal"
     font-weight="400"
     font-size="13"
     transform="matrix(0.46725592,0,0,0.46725592,167.29486,171.99075)">
    <polyline
       style="fill:none;stroke:#888a85"
       id="polyline84"
       points="-212,-111 -220,-115 "
       vector-effect="none" />
  </g>
  <g
     style="font-style:normal;font-weight:400;font-size:13px;font-family:'.SF NS Text';fill:none;fill-rule:evenodd;stroke:#888a85;stroke-width:4;stroke-linecap:butt;stroke-linejoin:bevel;stroke-opacity:1"
     id="g86"
     font-style="normal"
     font-weight="400"
     font-size="13"
     transform="matrix(0.46725592,0,0,0.46725592,167.29486,171.99075)">
    <polyline
       style="fill:none;stroke:#888a85"
       id="polyline88"
       points="-212,-110 -220,-115 "
       vector-effect="none" />
  </g>
  <g
     style="font-style:normal;font-weight:400;font-size:13px;font-family:'.SF NS Text';fill:none;fill-rule:evenodd;stroke:#fffcf5;stroke-width:4;stroke-linecap:butt;stroke-linejoin:bevel;stroke-opacity:1"
     id="g90"
     font-style="normal"
     font-weight="400"
     font-size="13"
     transform="matrix(0.46725592,0,0,0.46725592,167.29486,171.99075)">
    <polyline
       style="fill:none"
       id="polyline92"
       points="-157,176 -165,185 "
       vector-effect="none" />
  </g>
  <g
     style="font-style:normal;font-weight:400;font-size:13px;font-family:'.SF NS Text';fill:none;fill-rule:evenodd;stroke:#fffcf5;stroke-width:4;stroke-linecap:butt;stroke-linejoin:bevel;stroke-opacity:1"
     id="g94"
     font-style="normal"
     font-weight="400"
     font-size="13"
     transform="matrix(0.46725592,0,0,0.46725592,167.29486,171.99075)">
    <polyline
       style="fill:none"
       id="polyline96"
       points="-150,170 -164,186 "
       vector-effect="none" />
  </g>
  <g
     style="font-style:normal;font-weight:400;font-size:13px;font-family:'.SF NS Text';fill:none;fill-rule:evenodd;stroke:#fffcf5;stroke-width:4;stroke-linecap:butt;stroke-linejoin:bevel;stroke-opacity:1"
     id="g98"
     font-style="normal"
     font-weight="400"
     font-size="13"
     transform="matrix(0.46725592,0,0,0.46725592,167.29486,171.99075)">
    <polyline
       style="fill:none"
       id="polyline100"
       points="-157,180 -163,187 "
       vector-effect="none" />
  </g>
  <g
     style="font-style:normal;font-weight:400;font-size:13px;font-family:'.SF NS Text';fill:none;fill-rule:evenodd;stroke:#fffcf5;stroke-width:4;stroke-linecap:butt;stroke-linejoin:bevel;stroke-opacity:1"
     id="g102"
     font-style="normal"
     font-weight="400"
     font-size="13"
     transform="matrix(0.46725592,0,0,0.46725592,167.29486,171.99075)">
    <polyline
       style="fill:none"
       id="polyline104"
       points="-57,232 -60,241 "
       vector-effect="none" />
  </g>
  <g
     style="font-style:normal;font-weight:400;font-size:13px;font-family:'.SF NS Text';fill:none;fill-rule:evenodd;stroke:#7f7f7f;stroke-width:1;stroke-linecap:square;stroke-linejoin:bevel;stroke-opacity:1"
     id="g106"
     font-style="normal"
     font-weight="400"
     font-size="13"
     transform="matrix(0.46725592,0,0,0.46725592,167.29486,171.99075)">
    <polyline
       style="fill:none"
       id="polyline108"
       points="-157,176 -165,185 "
       vector-effect="none" />
    <polyline
       style="fill:none"
       id="polyline110"
       points="-165,185 -195,188 "
       vector-effect="none" />
  </g>
  <g
     style="font-style:normal;font-weight:400;font-size:13px;font-family:'.SF NS Text';fill:#555753;fill-rule:evenodd;stroke:#888a85;stroke-width:1;stroke-linecap:square;stroke-linejoin:bevel;stroke-opacity:1"
     id="g122"
     font-style="normal"
     font-weight="400"
     font-size="13"
     transform="matrix(0.46725592,0,0,0.46725592,167.29486,171.99075)">
    <polyline
       style="fill:#555753;stroke:#888a85"
       id="polyline124"
       points="-132,-184 -145,-201 "
       vector-effect="none" />
    <polyline
       style="fill:#555753;stroke:#888a85"
       id="polyline126"
       points="-145,-201 -167,-231 "
       vector-effect="none" />
  </g>
  <g
     style="font-style:normal;font-weight:400;font-size:13px;font-family:'.SF NS Text';fill:none;fill-rule:evenodd;stroke:#888a85;stroke-width:2;stroke-linecap:butt;stroke-linejoin:bevel;stroke-opacity:1"
     id="g128"
     font-style="normal"
     font-weight="400"
     font-size="13"
     transform="matrix(0.46725592,0,0,0.46725592,167.29486,171.99075)">
    <path
       style="fill-rule:evenodd;stroke:#888a85"
       inkscape:connector-curvature="0"
       id="path130"
       d="m -135.431,-180.943 c 1.055,-0.791 2.114,-1.571 3.175,-2.338"
       vector-effect="none" />
  </g>
  <g
     style="font-style:normal;font-weight:400;font-size:13px;font-family:'.SF NS Text';fill:#555753;fill-rule:evenodd;stroke:#888a85;stroke-width:1;stroke-linecap:square;stroke-linejoin:bevel;stroke-opacity:1"
     id="g132"
     font-style="normal"
     font-weight="400"
     font-size="13"
     transform="matrix(0.46725592,0,0,0.46725592,167.29486,171.99075)">
    <polyline
       style="fill:#555753;stroke:#888a85"
       id="polyline134"
       points="-199,-108 -218,-119 "
       vector-effect="none" />
    <polyline
       style="fill:#555753;stroke:#888a85"
       id="polyline136"
       points="-218,-119 -231,-134 "
       vector-effect="none" />
  </g>
  <g
     style="font-style:normal;font-weight:400;font-size:13px;font-family:'.SF NS Text';fill:none;fill-rule:evenodd;stroke:#888a85;stroke-width:2;stroke-linecap:butt;stroke-linejoin:bevel;stroke-opacity:1"
     id="g138"
     font-style="normal"
     font-weight="400"
     font-size="13"
     transform="matrix(0.46725592,0,0,0.46725592,167.29486,171.99075)">
    <path
       style="fill-rule:evenodd;stroke:#888a85"
       inkscape:connector-curvature="0"
       id="path140"
       d="m -201.96,-101.539 c 1.156,-2.295 2.34,-4.548 3.552,-6.764"
       vector-effect="none" />
  </g>
  <g
     style="font-style:normal;font-weight:400;font-size:13px;font-family:'.SF NS Text';fill:none;fill-rule:evenodd;stroke:#888a85;stroke-width:1;stroke-linecap:square;stroke-linejoin:bevel;stroke-opacity:1"
     id="g142"
     font-style="normal"
     font-weight="400"
     font-size="13"
     transform="matrix(0.46725592,0,0,0.46725592,167.29486,171.99075)">
    <polyline
       style="fill:none;stroke:#888a85"
       id="polyline144"
       points="-212,-111 -220,-115 "
       vector-effect="none" />
    <polyline
       style="fill:none;stroke:#888a85"
       id="polyline146"
       points="-220,-115 -237,-123 "
       vector-effect="none" />
  </g>
  <g
     style="font-style:normal;font-weight:400;font-size:13px;font-family:'.SF NS Text';fill:none;fill-rule:evenodd;stroke:#888a85;stroke-width:2;stroke-linecap:square;stroke-linejoin:bevel;stroke-opacity:1"
     id="g148"
     font-style="normal"
     font-weight="400"
     font-size="13"
     transform="matrix(0.46725592,0,0,0.46725592,167.29486,171.99075)">
    <path
       style="fill-rule:evenodd;stroke:#888a85"
       inkscape:connector-curvature="0"
       id="path150"
       d="m -209.319,-115.446 c -0.756,1.368 -1.499,2.744 -2.228,4.128"
       vector-effect="none" />
  </g>
  <g
     style="font-style:normal;font-weight:400;font-size:13px;font-family:'.SF NS Text';fill:#555753;fill-rule:evenodd;stroke:#888a85;stroke-width:1;stroke-linecap:square;stroke-linejoin:bevel;stroke-opacity:1"
     id="g152"
     font-style="normal"
     font-weight="400"
     font-size="13"
     transform="matrix(0.46725592,0,0,0.46725592,167.29486,171.99075)">
    <polyline
       style="fill:#555753;stroke:#888a85"
       id="polyline154"
       points="-212,-110 -220,-115 "
       vector-effect="none" />
    <polyline
       style="fill:#555753;stroke:#888a85"
       id="polyline156"
       points="-220,-115 -243,-113 "
       vector-effect="none" />
  </g>
  <g
     style="font-style:normal;font-weight:400;font-size:13px;font-family:'.SF NS Text';fill:none;fill-rule:evenodd;stroke:#888a85;stroke-width:2;stroke-linecap:square;stroke-linejoin:bevel;stroke-opacity:1"
     id="g158"
     font-style="normal"
     font-weight="400"
     font-size="13"
     transform="matrix(0.46725592,0,0,0.46725592,167.29486,171.99075)">
    <path
       style="fill-rule:evenodd;stroke:#888a85"
       inkscape:connector-curvature="0"
       id="path160"
       d="m -209.57,-114.989 c -0.753,1.369 -1.493,2.747 -2.22,4.132"
       vector-effect="none" />
  </g>
  <g
     style="font-style:normal;font-weight:400;font-size:13px;font-family:'.SF NS Text';fill:#555753;fill-rule:evenodd;stroke:#888a85;stroke-width:1;stroke-linecap:square;stroke-linejoin:bevel;stroke-opacity:1"
     id="g162"
     font-style="normal"
     font-weight="400"
     font-size="13"
     transform="matrix(0.46725592,0,0,0.46725592,167.29486,171.99075)">
    <polyline
       style="fill:#555753;stroke:#888a85"
       id="polyline164"
       points="-150,170 -164,186 "
       vector-effect="none" />
    <polyline
       style="fill:#555753;stroke:#888a85"
       id="polyline166"
       points="-164,186 -177,202 "
       vector-effect="none" />
  </g>
  <g
     style="font-style:normal;font-weight:400;font-size:13px;font-family:'.SF NS Text';fill:#555753;fill-rule:evenodd;stroke:#888a85;stroke-width:2;stroke-linecap:butt;stroke-linejoin:bevel;stroke-opacity:1"
     id="g168"
     font-style="normal"
     font-weight="400"
     font-size="13"
     transform="matrix(0.46725592,0,0,0.46725592,167.29486,171.99075)">
    <path
       style="fill:#555753;fill-rule:evenodd;stroke:#888a85"
       inkscape:connector-curvature="0"
       id="path170"
       d="m -146.215,172.335 c -1.128,-0.959 -2.246,-1.927 -3.354,-2.906"
       vector-effect="none" />
  </g>
  <g
     style="font-style:normal;font-weight:400;font-size:13px;font-family:'.SF NS Text';fill:#555753;fill-rule:evenodd;stroke:#888a85;stroke-width:1;stroke-linecap:square;stroke-linejoin:bevel;stroke-opacity:1"
     id="g172"
     font-style="normal"
     font-weight="400"
     font-size="13"
     transform="matrix(0.46725592,0,0,0.46725592,167.29486,171.99075)">
    <polyline
       style="fill:#555753;stroke:#888a85"
       id="polyline174"
       points="-157,180 -163,187 "
       vector-effect="none" />
    <polyline
       style="fill:#555753;stroke:#888a85"
       id="polyline176"
       points="-163,187 -164,215 "
       vector-effect="none" />
  </g>
  <g
     style="font-style:normal;font-weight:400;font-size:13px;font-family:'.SF NS Text';fill:none;fill-rule:evenodd;stroke:#888a85;stroke-width:2;stroke-linecap:square;stroke-linejoin:bevel;stroke-opacity:1"
     id="g178"
     font-style="normal"
     font-weight="400"
     font-size="13"
     transform="matrix(0.46725592,0,0,0.46725592,167.29486,171.99075)">
    <path
       style="fill-rule:evenodd;stroke:#888a85"
       inkscape:connector-curvature="0"
       id="path180"
       d="m -163.379,174.438 c 1.966,1.842 3.962,3.651 5.989,5.426"
       vector-effect="none" />
  </g>
  <g
     style="font-style:normal;font-weight:400;font-size:13px;font-family:'.SF NS Text';fill:#555753;fill-rule:evenodd;stroke:#888a85;stroke-width:1;stroke-linecap:square;stroke-linejoin:bevel;stroke-opacity:1"
     id="g182"
     font-style="normal"
     font-weight="400"
     font-size="13"
     transform="matrix(0.46725592,0,0,0.46725592,167.29486,171.99075)">
    <polyline
       style="fill:#555753;stroke:#888a85"
       id="polyline184"
       points="-57,232 -60,241 "
       vector-effect="none" />
    <polyline
       style="fill:#555753;stroke:#888a85"
       id="polyline186"
       points="-60,241 -69,270 "
       vector-effect="none" />
  </g>
  <g
     style="font-style:normal;font-weight:400;font-size:13px;font-family:'.SF NS Text';fill:#555753;fill-rule:evenodd;stroke:#888a85;stroke-width:2;stroke-linecap:square;stroke-linejoin:bevel;stroke-opacity:1"
     id="g188"
     font-style="normal"
     font-weight="400"
     font-size="13"
     transform="matrix(0.46725592,0,0,0.46725592,167.29486,171.99075)">
    <path
       style="fill:#555753;fill-rule:evenodd;stroke:#888a85"
       inkscape:connector-curvature="0"
       id="path190"
       d="m -61.661,230.97 c 1.2586,0.335 2.5214,0.66 3.7881,0.975"
       vector-effect="none" />
  </g>
  <g
     style="font-style:normal;font-weight:400;font-size:12px;font-family:Verdana;fill:#555753;fill-rule:evenodd;stroke:#a020f0;stroke-width:1;stroke-linecap:square;stroke-linejoin:bevel;stroke-opacity:1"
     id="g200"
     font-style="normal"
     font-weight="400"
     font-size="12"
     transform="matrix(0.46725592,0,0,0.46725592,167.29486,171.99075)">
    <text
       style="font-style:normal;font-weight:400;font-size:12px;font-family:Verdana;fill:#555753;fill-opacity:1;stroke:none"
       id="text202"
       font-style="normal"
       font-weight="400"
       font-size="12"
       y="-233"
       x="-219"
       xml:space="preserve">1412rev</text>
  </g>
  <g
     style="font-style:normal;font-weight:400;font-size:12px;font-family:Verdana;fill:#555753;fill-rule:evenodd;stroke:#a020f0;stroke-width:1;stroke-linecap:square;stroke-linejoin:bevel;stroke-opacity:1"
     id="g208"
     font-style="normal"
     font-weight="400"
     font-size="12"
     transform="matrix(0.46725592,0,0,0.46725592,167.29486,171.99075)">
    <text
       style="font-style:normal;font-weight:400;font-size:12px;font-family:Verdana;fill:#555753;fill-opacity:1;stroke:none"
       id="text210"
       font-style="normal"
       font-weight="400"
       font-size="12"
       y="-136"
       x="-265"
       xml:space="preserve">1409</text>
  </g>
  <g
     style="font-style:normal;font-weight:400;font-size:12px;font-family:Verdana;fill:#555753;fill-rule:evenodd;stroke:#a020f0;stroke-width:1;stroke-linecap:square;stroke-linejoin:bevel;stroke-opacity:1"
     id="g216"
     font-style="normal"
     font-weight="400"
     font-size="12"
     transform="matrix(0.46725592,0,0,0.46725592,167.29486,171.99075)">
    <text
       style="font-style:normal;font-weight:400;font-size:12px;font-family:Verdana;fill:#555753;fill-opacity:1;stroke:none"
       id="text218"
       font-style="normal"
       font-weight="400"
       font-size="12"
       y="-121"
       x="-272"
       xml:space="preserve">1410</text>
  </g>
  <g
     style="font-style:normal;font-weight:400;font-size:12px;font-family:Verdana;fill:#555753;fill-rule:evenodd;stroke:#a020f0;stroke-width:1;stroke-linecap:square;stroke-linejoin:bevel;stroke-opacity:1"
     id="g224"
     font-style="normal"
     font-weight="400"
     font-size="12"
     transform="matrix(0.46725592,0,0,0.46725592,167.29486,171.99075)">
    <text
       style="font-style:normal;font-weight:400;font-size:12px;font-family:Verdana;fill:#555753;fill-opacity:1;stroke:none"
       id="text226"
       font-style="normal"
       font-weight="400"
       font-size="12"
       y="-106"
       x="-299"
       xml:space="preserve">1412fwd</text>
  </g>
  <g
     style="font-style:normal;font-weight:700;font-size:12px;font-family:Verdana;fill:none;fill-rule:evenodd;stroke:#000000;stroke-width:1;stroke-linecap:square;stroke-linejoin:bevel;stroke-opacity:1"
     id="g232"
     font-style="normal"
     font-weight="700"
     font-size="12"
     transform="matrix(0.46725592,0,0,0.46725592,167.29486,171.99075)">
    <text
       style="font-style:normal;font-weight:700;font-size:12px;font-family:Verdana;fill:#000000;fill-opacity:1;stroke:none"
       id="text234"
       font-style="normal"
       font-weight="700"
       font-size="12"
       y="194"
       x="-230"
       xml:space="preserve">SpeI</text>
  </g>
  <g
     style="font-style:normal;font-weight:400;font-size:12px;font-family:Verdana;fill:#555753;fill-rule:evenodd;stroke:#a020f0;stroke-width:1;stroke-linecap:square;stroke-linejoin:bevel;stroke-opacity:1"
     id="g240"
     font-style="normal"
     font-weight="400"
     font-size="12"
     transform="matrix(0.46725592,0,0,0.46725592,167.29486,171.99075)">
    <text
       style="font-style:normal;font-weight:400;font-size:12px;font-family:Verdana;fill:#555753;fill-opacity:1;stroke:none"
       id="text242"
       font-style="normal"
       font-weight="400"
       font-size="12"
       y="216"
       x="-211"
       xml:space="preserve">1392</text>
  </g>
  <g
     style="font-style:normal;font-weight:400;font-size:12px;font-family:Verdana;fill:#555753;fill-rule:evenodd;stroke:#a020f0;stroke-width:1;stroke-linecap:square;stroke-linejoin:bevel;stroke-opacity:1"
     id="g248"
     font-style="normal"
     font-weight="400"
     font-size="12"
     transform="matrix(0.46725592,0,0,0.46725592,167.29486,171.99075)">
    <text
       style="font-style:normal;font-weight:400;font-size:12px;font-family:Verdana;fill:#555753;fill-opacity:1;stroke:none"
       id="text250"
       font-style="normal"
       font-weight="400"
       font-size="12"
       y="231"
       x="-195"
       xml:space="preserve">1408</text>
  </g>
  <g
     style="font-style:normal;font-weight:400;font-size:12px;font-family:Verdana;fill:#555753;fill-rule:evenodd;stroke:#a020f0;stroke-width:1;stroke-linecap:square;stroke-linejoin:bevel;stroke-opacity:1"
     id="g256"
     font-style="normal"
     font-weight="400"
     font-size="12"
     transform="matrix(0.46725592,0,0,0.46725592,167.29486,171.99075)">
    <text
       style="font-style:normal;font-weight:400;font-size:12px;font-family:Verdana;fill:#555753;fill-opacity:1;stroke:none"
       id="text258"
       font-style="normal"
       font-weight="400"
       font-size="12"
       y="286"
       x="-122"
       xml:space="preserve">1394fwd</text>
  </g>
  <g
     style="font-style:normal;font-weight:400;font-size:11px;font-family:Verdana;fill:none;fill-rule:evenodd;stroke:#fffcf5;stroke-width:4;stroke-linecap:butt;stroke-linejoin:bevel;stroke-opacity:1"
     id="g268"
     font-style="normal"
     font-weight="400"
     font-size="11"
     transform="matrix(0.46725592,0,0,0.46725592,167.29486,171.99075)">
    <polyline
       style="fill:none"
       id="polyline270"
       points="226,68 238,72 "
       vector-effect="none" />
  </g>
  <g
     style="font-style:normal;font-weight:400;font-size:11px;font-family:Verdana;fill:none;fill-rule:evenodd;stroke:#fffcf5;stroke-width:4;stroke-linecap:butt;stroke-linejoin:bevel;stroke-opacity:1"
     id="g272"
     font-style="normal"
     font-weight="400"
     font-size="11"
     transform="matrix(0.46725592,0,0,0.46725592,167.29486,171.99075)">
    <polyline
       style="fill:none"
       id="polyline274"
       points="16,239 17,248 "
       vector-effect="none" />
  </g>
  <g
     style="font-style:normal;font-weight:400;font-size:11px;font-family:Verdana;fill:none;fill-rule:evenodd;stroke:#7f7f7f;stroke-width:1;stroke-linecap:square;stroke-linejoin:bevel;stroke-opacity:1"
     id="g276"
     font-style="normal"
     font-weight="400"
     font-size="11"
     transform="matrix(0.46725592,0,0,0.46725592,167.29486,171.99075)">
    <polyline
       style="fill:none"
       id="polyline278"
       points="226,68 238,72 "
       vector-effect="none" />
    <polyline
       style="fill:none"
       id="polyline280"
       points="238,72 254,76 "
       vector-effect="none" />
  </g>
  <g
     style="font-style:normal;font-weight:400;font-size:11px;font-family:Verdana;fill:#888a85;fill-rule:evenodd;stroke:#888a85;stroke-width:1;stroke-linecap:square;stroke-linejoin:bevel;stroke-opacity:1"
     id="g282"
     font-style="normal"
     font-weight="400"
     font-size="11"
     transform="matrix(0.46725592,0,0,0.46725592,167.29486,171.99075)">
    <polyline
       style="fill:#888a85;stroke:#888a85"
       id="polyline284"
       points="3,-226 3,-248 "
       vector-effect="none" />
    <polyline
       style="fill:#888a85;stroke:#888a85"
       id="polyline286"
       points="3,-248 37,-325 "
       vector-effect="none" />
  </g>
  <g
     style="font-style:normal;font-weight:400;font-size:11px;font-family:Verdana;fill:#888a85;fill-rule:evenodd;stroke:#888a85;stroke-width:1;stroke-linecap:square;stroke-linejoin:bevel;stroke-opacity:1"
     id="g292"
     font-style="normal"
     font-weight="400"
     font-size="11"
     transform="matrix(0.46725592,0,0,0.46725592,167.29486,171.99075)">
    <polyline
       style="fill:#888a85;stroke:#888a85"
       id="polyline294"
       points="16,239 17,248 "
       vector-effect="none" />
    <polyline
       style="fill:#888a85;stroke:#888a85"
       id="polyline296"
       points="17,248 20,269 "
       vector-effect="none" />
  </g>
  <g
     style="font-style:normal;font-weight:400;font-size:11px;font-family:Verdana;fill:#888a85;fill-rule:evenodd;stroke:#888a85;stroke-width:2;stroke-linecap:square;stroke-linejoin:bevel;stroke-opacity:1"
     id="g298"
     font-style="normal"
     font-weight="400"
     font-size="11"
     transform="matrix(0.46725592,0,0,0.46725592,167.29486,171.99075)">
    <path
       style="fill:#888a85;fill-rule:evenodd;stroke:#888a85"
       inkscape:connector-curvature="0"
       id="path300"
       d="m 12.0422,238.702 c 1.4833,-0.074 2.9632,-0.161 4.4393,-0.261"
       vector-effect="none" />
  </g>
  <g
     style="font-style:normal;font-weight:400;font-size:12px;font-family:Verdana;fill:#555753;fill-rule:evenodd;stroke:#a020f0;stroke-width:1;stroke-linecap:square;stroke-linejoin:bevel;stroke-opacity:1"
     id="g302"
     font-style="normal"
     font-weight="400"
     font-size="12"
     transform="matrix(0.46725592,0,0,0.46725592,167.29486,171.99075)">
    <text
       style="font-style:normal;font-weight:400;font-size:12px;font-family:Verdana;fill:#555753;fill-opacity:1;stroke:none"
       id="text304"
       font-style="normal"
       font-weight="400"
       font-size="12"
       y="-329"
       x="39"
       xml:space="preserve">1411</text>
  </g>
  <g
     style="font-style:normal;font-weight:700;font-size:12px;font-family:Verdana;fill:none;fill-rule:evenodd;stroke:#000000;stroke-width:1;stroke-linecap:square;stroke-linejoin:bevel;stroke-opacity:1"
     id="g310"
     font-style="normal"
     font-weight="700"
     font-size="12"
     transform="matrix(0.46725592,0,0,0.46725592,167.29486,171.99075)">
    <text
       style="font-style:normal;font-weight:700;font-size:12px;font-family:Verdana;fill:#000000;fill-opacity:1;stroke:none"
       id="text312"
       font-style="normal"
       font-weight="700"
       font-size="12"
       y="84"
       x="258"
       xml:space="preserve">ScaI</text>
  </g>
  <g
     style="font-style:normal;font-weight:400;font-size:12px;font-family:Verdana;fill:#555753;fill-rule:evenodd;stroke:#a020f0;stroke-width:1;stroke-linecap:square;stroke-linejoin:bevel;stroke-opacity:1"
     id="g318"
     font-style="normal"
     font-weight="400"
     font-size="12"
     transform="matrix(0.46725592,0,0,0.46725592,167.29486,171.99075)">
    <text
       style="font-style:normal;font-weight:400;font-size:12px;font-family:Verdana;fill:#555753;fill-opacity:1;stroke:none"
       id="text320"
       font-style="normal"
       font-weight="400"
       font-size="12"
       y="285"
       x="20"
       xml:space="preserve">1393</text>
  </g>
  <g
     style="font-style:normal;font-weight:400;font-size:11px;font-family:Verdana;fill:#252525;fill-opacity:1;fill-rule:evenodd;stroke:none;stroke-width:1;stroke-linecap:square;stroke-linejoin:bevel"
     id="g326"
     font-style="normal"
     font-weight="400"
     font-size="11"
     transform="matrix(0.46725592,0,0,0.46725592,167.29486,171.99075)">
    <path
       style="fill-rule:evenodd"
       inkscape:connector-curvature="0"
       id="path328"
       d="m 0,-236 c 130.339,0 236,105.661 236,236 0,130.339 -105.661,236 -236,236 -130.339,0 -236,-105.661 -236,-236 0,-130.339 105.661,-236 236,-236 l 0,3 c -128.682,0 -233,104.318 -233,233 0,128.682 104.318,233 233,233 C 128.682,233 233,128.682 233,0 233,-128.682 128.682,-233 0,-233 l 0,-3"
       vector-effect="none" />
  </g>
  <g
     style="font-style:normal;font-weight:400;font-size:11px;font-family:Verdana;fill:#252525;fill-opacity:1;fill-rule:evenodd;stroke:none;stroke-width:1;stroke-linecap:square;stroke-linejoin:bevel"
     id="g330"
     font-style="normal"
     font-weight="400"
     font-size="11"
     transform="matrix(0.46725592,0,0,0.46725592,167.29486,171.99075)">
    <path
       style="fill-rule:evenodd"
       inkscape:connector-curvature="0"
       id="path332"
       d="m 0,-232 c 128.13,0 232,103.87 232,232 0,128.13 -103.87,232 -232,232 -128.13,0 -232,-103.87 -232,-232 0,-128.13 103.87,-232 232,-232 l 0,3 c -126.473,0 -229,102.527 -229,229 0,126.473 102.527,229 229,229 C 126.473,229 229,126.473 229,0 229,-126.473 126.473,-229 0,-229 l 0,-3"
       vector-effect="none" />
  </g>
  <g
     style="font-style:normal;font-weight:400;font-size:12px;font-family:Verdana;fill:#729fcf;fill-opacity:1;fill-rule:evenodd;stroke:none;stroke-width:1;stroke-linecap:square;stroke-linejoin:bevel"
     id="g334"
     font-style="normal"
     font-weight="400"
     font-size="12"
     transform="matrix(0.46725592,0,0,0.46725592,167.29486,171.99075)">
    <path
       style="fill:#729fcf;fill-rule:evenodd"
       inkscape:connector-curvature="0"
       id="path336"
       d="M -183.307,-96.2546 C -148.649,-162.108 -79.5669,-207 0,-207 l 0,17 c -73.0382,0 -136.451,41.212 -168.253,101.6504 l -15.054,-7.905"
       vector-effect="none" />
  </g>
  <g
     style="font-style:normal;font-weight:400;font-size:12px;font-family:Verdana;fill:none;fill-rule:evenodd;stroke:#729fcf;stroke-width:1;stroke-linecap:square;stroke-linejoin:bevel;stroke-opacity:1"
     id="g338"
     font-style="normal"
     font-weight="400"
     font-size="12"
     transform="matrix(0.46725592,0,0,0.46725592,167.29486,171.99075)">
    <path
       style="fill-rule:evenodd;stroke:#729fcf"
       inkscape:connector-curvature="0"
       id="path340"
       d="M -183.307,-96.2546 C -148.649,-162.108 -79.5669,-207 0,-207 m 0,17 c -73.0382,0 -136.451,41.212 -168.253,101.6504"
       vector-effect="none" />
  </g>
  <g
     style="font-style:normal;font-weight:400;font-size:12px;font-family:Verdana;fill:#204a87;fill-opacity:1;fill-rule:evenodd;stroke:none;stroke-width:1;stroke-linecap:square;stroke-linejoin:bevel"
     id="g350"
     font-style="normal"
     font-weight="400"
     font-size="12"
     transform="matrix(0.46725592,0,0,0.46725592,167.29486,171.99075)">
    <path
       style="fill:#204a87;fill-rule:evenodd"
       inkscape:connector-curvature="0"
       id="path352"
       d="m -160.491,136.969 3.035,1.216 3.035,1.161 3.041,1.099 3.043,1.041 3.041,0.985 3.037,0.931 3.034,0.877 3.036,0.813 -0.953,-2.972 -0.891,-2.977 -0.837,-2.972 -0.784,-2.967 -0.73,-2.961 -0.674,-2.956 -0.615,-2.953 -0.563,-2.945 -18.255,15.58"
       vector-effect="none" />
  </g>
  <g
     style="font-style:normal;font-weight:400;font-size:12px;font-family:Verdana;fill:#204a87;fill-opacity:1;fill-rule:evenodd;stroke:none;stroke-width:1;stroke-linecap:square;stroke-linejoin:bevel"
     id="g354"
     font-style="normal"
     font-weight="400"
     font-size="12"
     transform="matrix(0.46725592,0,0,0.46725592,167.29486,171.99075)">
    <path
       style="fill:#204a87;fill-rule:evenodd"
       inkscape:connector-curvature="0"
       id="path356"
       d="M -156.097,135.955 C -187.703,99.6975 -206.882,52.3261 -206.999,0.479873 L -190,0.440463 C -189.892,48.0305 -172.287,91.5108 -143.278,124.79 l -12.819,11.165"
       vector-effect="none" />
  </g>
  <g
     style="font-style:normal;font-weight:400;font-size:12px;font-family:Verdana;fill:#8ae234;fill-opacity:1;fill-rule:evenodd;stroke:none;stroke-width:1;stroke-linecap:square;stroke-linejoin:bevel"
     id="g378"
     font-style="normal"
     font-weight="400"
     font-size="12"
     transform="matrix(0.46725592,0,0,0.46725592,167.29486,171.99075)">
    <path
       style="fill:#8ae234;fill-rule:evenodd"
       inkscape:connector-curvature="0"
       id="path380"
       d="M 14.581,206.494 C 9.72966,206.831 4.88459,207 0,207 c -52.5175,0 -100.467,-19.557 -136.962,-51.786 l 11.248,-12.747 C -92.2157,172.049 -48.2042,190 0,190 c 4.4994,0 8.96228,-0.156 13.3835,-0.464 l 1.1975,16.958"
       vector-effect="none" />
  </g>
  <g
     style="font-style:normal;font-weight:400;font-size:12px;font-family:Verdana;fill:#000000;fill-opacity:1;fill-rule:evenodd;stroke:none;stroke-width:1;stroke-linecap:square;stroke-linejoin:bevel"
     id="g422"
     font-style="normal"
     font-weight="400"
     font-size="12"
     transform="matrix(0.46725592,0,0,0.46725592,167.29486,171.99075)">
    <path
       style="fill-rule:evenodd"
       inkscape:connector-curvature="0"
       id="path424"
       d="m -111.228,-160.16 -1.014,0.707 -2.104,-1.486 -3.091,2.242 0.759,2.463 -0.942,0.705 -2.601,-8.936 1.309,-0.947 7.684,5.252 m -3.991,-1.38 -3.78,-2.564 1.257,4.393 2.523,-1.829 m 10.634,-3.033 -1.21,0.771 -7.822,-4.186 4.372,6.465 -0.893,0.613 -4.927,-7.199 1.552,-1.057 7.149,3.83 -3.855,-5.992 0.955,-0.608 4.679,7.363 m 7.4353,-5.227 c -0.1408,0.187 -0.2665,0.359 -0.3771,0.516 -0.1105,0.157 -0.2638,0.347 -0.4611,0.567 -0.1679,0.185 -0.3588,0.371 -0.5726,0.559 -0.2137,0.187 -0.4651,0.365 -0.7541,0.536 -0.5445,0.32 -1.0854,0.536 -1.6184,0.654 -0.533,0.118 -1.063,0.116 -1.588,-0.006 -0.516,-0.119 -1.015,-0.366 -1.498,-0.741 -0.484,-0.375 -0.927,-0.884 -1.327,-1.527 -0.38,-0.61 -0.631,-1.21 -0.751,-1.801 -0.12,-0.591 -0.112,-1.157 0.022,-1.697 0.131,-0.524 0.378,-1.015 0.742,-1.472 0.365,-0.457 0.838,-0.852 1.415,-1.192 0.422,-0.248 0.872,-0.447 1.349,-0.597 0.477,-0.149 1.045,-0.248 1.704,-0.294 l 0.683,1.196 -0.079,0.044 c -0.633,-0.104 -1.207,-0.11 -1.722,-0.019 -0.516,0.09 -1.015,0.278 -1.498,0.563 -0.396,0.233 -0.715,0.503 -0.958,0.813 -0.239,0.314 -0.404,0.675 -0.493,1.082 -0.085,0.396 -0.077,0.825 0.024,1.288 0.102,0.462 0.306,0.942 0.613,1.442 0.321,0.522 0.669,0.928 1.043,1.216 0.373,0.289 0.745,0.483 1.114,0.581 0.385,0.104 0.77,0.119 1.154,0.046 0.387,-0.068 0.757,-0.205 1.108,-0.412 0.4831,-0.284 0.8875,-0.633 1.2137,-1.048 0.327,-0.414 0.5823,-0.893 0.7655,-1.436 l 0.0721,-0.041 0.675,1.18 m 8.0962,-3.673 -1.335,0.695 -4.2272,-1.678 -1.4614,0.794 1.6792,3.035 -1.0104,0.569 -4.2688,-7.609 2.2332,-1.233 c 0.4839,-0.263 0.9033,-0.452 1.2581,-0.567 0.3547,-0.114 0.7022,-0.164 1.0446,-0.144 0.3854,0.024 0.7303,0.127 1.0348,0.31 0.3041,0.183 0.5637,0.481 0.7791,0.893 0.2915,0.557 0.3915,1.098 0.3009,1.623 -0.0894,0.525 -0.3343,1.012 -0.731,1.47 l 4.7039,1.842 m -5.3456,-4.285 c -0.1172,-0.221 -0.2615,-0.396 -0.4326,-0.524 -0.1709,-0.127 -0.3801,-0.199 -0.6278,-0.216 -0.2066,-0.016 -0.4258,0.013 -0.6574,0.087 -0.2317,0.075 -0.4903,0.19 -0.7757,0.345 l -1.2466,0.677 1.5941,2.881 1.0527,-0.572 c 0.3298,-0.179 0.6022,-0.363 0.8173,-0.553 0.2152,-0.191 0.3675,-0.41 0.4568,-0.658 0.0811,-0.231 0.1095,-0.461 0.0853,-0.69 -0.0236,-0.228 -0.1122,-0.487 -0.2661,-0.777 m 11.5102,1.256 -5.1631,2.518 -3.9396,-7.784 5.3941,-2.631 0.4384,0.934 -4.2883,2.079 1.0668,2.14 4.2376,-2.056 0.4384,0.934 -4.2158,2.045 1.4459,2.899 4.1472,-2.011 0.4384,0.933"
       vector-effect="none" />
  </g>
  <g
     style="font-style:normal;font-weight:400;font-size:12px;font-family:Verdana;fill:#ffffff;fill-opacity:1;fill-rule:evenodd;stroke:none;stroke-width:1;stroke-linecap:square;stroke-linejoin:bevel"
     id="g426"
     font-style="normal"
     font-weight="400"
     font-size="12"
     transform="matrix(0.46725592,0,0,0.46725592,167.29486,171.99075)">
    <path
       style="fill:#ffffff;fill-rule:evenodd"
       inkscape:connector-curvature="0"
       id="path428"
       d="m -191.623,68.483 -0.525,-1.4812 2.534,-4.6244 -1.159,-0.5572 -2.815,0.9121 -0.364,-1.1545 8.315,-2.64 0.349,1.105 -4.331,1.4035 5.682,2.6057 0.468,1.3239 -5.159,-2.3793 -2.995,5.4864 m 2.311,6.1499 -0.419,-1.0637 0.65,-0.2521 c -0.099,-0.0705 -0.236,-0.1646 -0.41,-0.2825 -0.175,-0.1182 -0.324,-0.2408 -0.447,-0.3682 -0.151,-0.1473 -0.298,-0.3268 -0.442,-0.5382 -0.143,-0.2116 -0.274,-0.4742 -0.391,-0.7875 -0.216,-0.577 -0.215,-1.1335 0.002,-1.6684 0.221,-0.5345 0.618,-0.9048 1.187,-1.1107 0.467,-0.1687 0.881,-0.202 1.242,-0.1002 0.363,0.1003 0.699,0.3092 1.006,0.627 0.307,0.321 0.59,0.7378 0.849,1.2506 0.258,0.5125 0.517,1.0694 0.786,1.6669 l 0.158,-0.0614 c 0.233,-0.0904 0.41,-0.2069 0.53,-0.3494 0.12,-0.1423 0.194,-0.3078 0.22,-0.4965 0.026,-0.1798 0.016,-0.3797 -0.033,-0.5987 -0.048,-0.2189 -0.115,-0.4415 -0.199,-0.6679 -0.103,-0.2745 -0.253,-0.5673 -0.451,-0.8784 -0.198,-0.3115 -0.432,-0.6225 -0.702,-0.9334 l -0.021,-0.0557 1.051,-0.3838 c 0.131,0.1832 0.302,0.4548 0.511,0.8147 0.21,0.3597 0.384,0.7258 0.524,1.0987 0.163,0.4357 0.269,0.8287 0.32,1.1785 0.056,0.3485 0.044,0.6736 -0.034,0.9753 -0.076,0.2971 -0.223,0.5587 -0.441,0.7846 -0.217,0.2262 -0.522,0.4168 -0.914,0.5716 l -4.132,1.6288 m 1.083,-1.6462 1.699,-0.6588 c -0.144,-0.3136 -0.319,-0.6811 -0.519,-1.1046 -0.2,-0.4237 -0.383,-0.7502 -0.548,-0.9796 -0.198,-0.2731 -0.421,-0.4708 -0.669,-0.5932 -0.248,-0.1228 -0.528,-0.1269 -0.839,-0.0122 -0.352,0.1296 -0.576,0.3372 -0.672,0.6229 -0.095,0.2863 -0.058,0.6557 0.111,1.1082 0.141,0.3763 0.34,0.6937 0.597,0.9516 0.258,0.2569 0.54,0.4783 0.84,0.6657 m 1.964,8.9599 -0.458,-1.0541 3.419,-1.4813 c 0.276,-0.1196 0.528,-0.2482 0.756,-0.3859 0.227,-0.1376 0.39,-0.2795 0.488,-0.4259 0.111,-0.156 0.167,-0.3353 0.166,-0.5378 -0.001,-0.2024 -0.06,-0.4398 -0.179,-0.7124 -0.118,-0.2814 -0.308,-0.5473 -0.572,-0.7975 -0.265,-0.2507 -0.562,-0.4733 -0.892,-0.6679 l -4.516,1.8671 -0.44,-1.0619 6.062,-2.4665 0.426,1.0278 -0.671,0.2775 c 0.396,0.2126 0.74,0.4592 1.029,0.7401 0.29,0.2804 0.509,0.6007 0.664,0.9586 0.285,0.6542 0.306,1.2378 0.066,1.7519 -0.24,0.5155 -0.727,0.9351 -1.46,1.2576 l -3.888,1.7106 m 4.179,8.9042 -0.701,-1.4062 1.823,-4.2239 -0.707,-1.5202 -3.15,1.4515 -0.502,-1.1016 7.945,-3.6034 1.018,2.2176 c 0.227,0.4754 0.385,0.8862 0.474,1.2326 0.09,0.3466 0.116,0.685 0.079,1.0153 -0.043,0.3728 -0.162,0.7061 -0.357,0.9998 -0.193,0.2929 -0.498,0.5416 -0.915,0.7459 -0.565,0.2765 -1.11,0.3639 -1.631,0.2596 -0.52,-0.1062 -0.999,-0.3691 -1.437,-0.7885 l -1.939,4.7215 m 4.401,-5.2616 c 0.225,-0.1085 0.406,-0.2447 0.542,-0.4085 0.136,-0.1637 0.22,-0.3665 0.252,-0.6082 0.029,-0.2012 0.015,-0.4158 -0.044,-0.644 -0.059,-0.2281 -0.156,-0.4837 -0.291,-0.7668 l -0.576,-1.2436 -2.991,1.3779 0.501,1.0864 c 0.161,0.3383 0.331,0.6196 0.509,0.8439 0.178,0.224 0.389,0.3862 0.631,0.4865 0.225,0.0906 0.452,0.1283 0.681,0.1131 0.228,-0.0154 0.49,-0.0943 0.786,-0.2367"
       vector-effect="none" />
  </g>
  <g
     style="font-style:normal;font-weight:400;font-size:12px;font-family:Verdana;fill:#000000;fill-opacity:1;fill-rule:evenodd;stroke:none;stroke-width:1;stroke-linecap:square;stroke-linejoin:bevel"
     id="g430"
     font-style="normal"
     font-weight="400"
     font-size="12"
     transform="matrix(0.46725592,0,0,0.46725592,167.29486,171.99075)">
    <path
       style="fill-rule:evenodd"
       inkscape:connector-curvature="0"
       id="path432"
       d="m -67.4334,182.724 -5.2356,7.356 -1.2695,-0.494 0.9152,-7.423 -4.4257,6.015 -1.2307,-0.51 1.2542,-8.951 1.0887,0.474 -1.0905,7.404 4.4442,-6.01 1.0936,0.431 -0.9473,7.498 4.3406,-6.188 1.0628,0.398 m 4.9547,7.622 -4.6833,-1.605 c -0.1349,0.379 -0.1935,0.73 -0.1758,1.053 0.018,0.324 0.0981,0.612 0.2404,0.866 0.1363,0.247 0.3256,0.463 0.568,0.648 0.2426,0.186 0.5285,0.337 0.8593,0.447 0.4386,0.147 0.9086,0.211 1.4092,0.191 0.4998,-0.02 0.8705,-0.081 1.1122,-0.181 l 0.0575,0.019 -0.3754,1.141 c -0.4154,0.026 -0.831,0.025 -1.2468,-0.003 -0.4161,-0.028 -0.8351,-0.113 -1.2565,-0.254 -1.0703,-0.372 -1.8062,-0.944 -2.2071,-1.71 -0.3975,-0.765 -0.4107,-1.655 -0.0421,-2.672 0.3646,-1.006 0.9338,-1.706 1.7049,-2.1 0.7675,-0.396 1.603,-0.433 2.5093,-0.114 0.8442,0.283 1.4132,0.745 1.7088,1.388 0.298,0.643 0.2998,1.416 0.0038,2.318 l -0.1864,0.568 m -0.7764,-1.15 c 0.1795,-0.549 0.181,-1.02 0.0051,-1.413 -0.1751,-0.392 -0.5437,-0.682 -1.1066,-0.871 -0.5633,-0.199 -1.0693,-0.194 -1.519,0.016 -0.4508,0.209 -0.7856,0.548 -1.0035,1.018 l 3.624,1.25 m 6.5221,6.231 -1.0955,-0.325 0.1981,-0.668 c -0.1162,0.035 -0.2741,0.085 -0.4738,0.15 -0.1998,0.065 -0.3879,0.108 -0.5643,0.129 -0.2095,0.032 -0.4422,0.041 -0.6981,0.029 -0.2557,-0.015 -0.5426,-0.073 -0.8614,-0.174 -0.5872,-0.185 -1.0261,-0.528 -1.3157,-1.029 -0.2879,-0.5 -0.3387,-1.039 -0.1534,-1.615 0.1518,-0.472 0.3791,-0.821 0.6813,-1.048 0.3015,-0.226 0.6714,-0.362 1.1095,-0.409 0.4412,-0.045 0.943,-0.011 1.5056,0.1 0.5645,0.105 1.165,0.234 1.801,0.39 l 0.0483,-0.163 c 0.071,-0.24 0.0869,-0.451 0.0479,-0.634 -0.0389,-0.182 -0.1247,-0.342 -0.2575,-0.479 -0.1262,-0.131 -0.2911,-0.243 -0.4947,-0.336 -0.2035,-0.093 -0.421,-0.174 -0.6521,-0.244 -0.2794,-0.088 -0.6022,-0.15 -0.9685,-0.186 -0.3666,-0.035 -0.755,-0.042 -1.1656,-0.02 l -0.0568,-0.018 0.3393,-1.066 c 0.2247,0.009 0.5431,0.042 0.9552,0.098 0.4118,0.056 0.8074,0.144 1.1868,0.264 0.4453,0.133 0.8224,0.285 1.1312,0.455 0.3089,0.171 0.5585,0.381 0.7487,0.629 0.188,0.243 0.3048,0.52 0.3503,0.831 0.0458,0.311 0.0101,0.669 -0.1076,1.074 l -1.2382,4.265 m -0.6377,-1.869 0.5179,-1.747 c -0.3359,-0.08 -0.7331,-0.167 -1.1919,-0.262 -0.459,-0.095 -0.8284,-0.152 -1.1102,-0.163 -0.3365,-0.012 -0.6287,0.043 -0.8768,0.163 -0.2485,0.12 -0.4227,0.339 -0.5225,0.656 -0.1127,0.357 -0.0855,0.662 0.0817,0.913 0.1677,0.252 0.4819,0.45 0.9423,0.595 0.3836,0.119 0.7574,0.151 1.1197,0.102 0.3617,-0.05 0.7084,-0.136 1.0398,-0.257 m 8.7582,4.046 -1.4698,-0.369 -1.9075,-3.454 -0.8867,0.46 -0.5741,2.108 -1.107,-0.307 2.4443,-8.783 1.0574,0.294 -1.5359,5.642 3.9657,-2.343 1.3586,0.344 -3.7445,2.161 2.3995,4.247"
       vector-effect="none" />
  </g>
  <g
     style="font-style:normal;font-weight:400;font-size:12px;font-family:Verdana;fill:none;fill-rule:evenodd;stroke:#000000;stroke-width:1;stroke-linecap:square;stroke-linejoin:bevel;stroke-opacity:1"
     id="g438"
     font-style="normal"
     font-weight="400"
     font-size="12"
     transform="matrix(0.655088,0,0,0.655088,239.9911,235.43177)" />
  <g
     style="font-style:normal;font-weight:700;font-size:14px;font-family:Verdana;fill:none;fill-rule:evenodd;stroke:#000000;stroke-width:1;stroke-linecap:square;stroke-linejoin:bevel;stroke-opacity:1"
     id="g440"
     font-style="normal"
     font-weight="700"
     font-size="14"
     transform="matrix(0.46725592,0,0,0.46725592,167.29486,171.99075)">
    <text
       style="font-style:normal;font-variant:normal;font-weight:bold;font-stretch:normal;font-size:13.99993992px;line-height:125%;font-family:Verdana;-inkscape-font-specification:'Verdana, Bold';text-align:start;writing-mode:lr-tb;text-anchor:start;fill:#000000;fill-opacity:1;stroke:none"
       id="text442"
       font-style="normal"
       font-weight="700"
       font-size="14"
       y="0"
       x="-49.131863"
       xml:space="preserve"
       sodipodi:linespacing="125%"><tspan
         sodipodi:role="line"
         id="tspan4802"
         x="-49.131863"
         y="0">pWKanancre</tspan></text>
  </g>
  <g
     style="font-style:normal;font-weight:400;font-size:11px;font-family:Verdana;fill:none;fill-rule:evenodd;stroke:#000000;stroke-width:1;stroke-linecap:square;stroke-linejoin:bevel;stroke-opacity:1"
     id="g444"
     font-style="normal"
     font-weight="400"
     font-size="11"
     transform="matrix(0.46725592,0,0,0.46725592,167.29486,171.99075)">
    <text
       style="font-style:normal;font-weight:400;font-size:11px;font-family:Verdana;fill:#000000;fill-opacity:1;stroke:none"
       id="text446"
       font-style="normal"
       font-weight="400"
       font-size="11"
       y="14"
       x="-22"
       xml:space="preserve">6131 bp</text>
  </g>
  <g
     style="font-style:normal;font-weight:400;font-size:12px;font-family:Verdana;fill:none;fill-rule:evenodd;stroke:#000000;stroke-width:1;stroke-linecap:square;stroke-linejoin:bevel;stroke-opacity:1"
     id="g448"
     font-style="normal"
     font-weight="400"
     font-size="12"
     transform="matrix(0.655088,0,0,0.655088,239.9911,235.43177)" />
  <g
     style="font-style:normal;font-weight:400;font-size:13px;font-family:'.SF NS Text';fill:none;fill-rule:evenodd;stroke:#000000;stroke-width:1;stroke-linecap:square;stroke-linejoin:bevel;stroke-opacity:1"
     id="g450"
     font-style="normal"
     font-weight="400"
     font-size="13"
     transform="matrix(0.66995223,0,0,0.66995223,-165.33,-7.7608892)" />
</svg>
